<mxfile host="www.draw.io" modified="2019-11-14T15:23:22.269Z" agent="Mozilla/5.0 (Macintosh; Intel Mac OS X 10_15_0) AppleWebKit/537.36 (KHTML, like Gecko) Chrome/78.0.3904.97 Safari/537.36" etag="q8hTou4hJZVfH0mX9wDH" version="12.2.6" type="github" pages="1">
  <diagram name="Page-1" id="42789a77-a242-8287-6e28-9cd8cfd52e62">
    <mxGraphModel dx="1417" dy="737" grid="0" gridSize="10" guides="1" tooltips="1" connect="1" arrows="1" fold="1" page="1" pageScale="1" pageWidth="1100" pageHeight="850" background="#ffffff" math="0" shadow="0">
      <root>
        <mxCell id="0"/>
        <mxCell id="1" parent="0"/>
        <mxCell id="7a5-o8HqeozauI7hd3fz-11" value="" style="rounded=1;whiteSpace=wrap;html=1;absoluteArcSize=1;arcSize=14;strokeWidth=2;fillColor=#F4F7FC;strokeColor=#6c8ebf;gradientColor=none;" vertex="1" parent="1">
          <mxGeometry x="262" y="259" width="426" height="492" as="geometry"/>
        </mxCell>
        <mxCell id="1ea317790d2ca983-13" value="" style="edgeStyle=none;rounded=1;html=1;labelBackgroundColor=none;startArrow=none;startFill=0;startSize=5;endArrow=classicThin;endFill=1;endSize=5;jettySize=auto;orthogonalLoop=1;strokeColor=#B3B3B3;strokeWidth=1;fontFamily=Verdana;fontSize=12;fontColor=#000000;" parent="1" source="1ea317790d2ca983-1" target="1ea317790d2ca983-9" edge="1">
          <mxGeometry relative="1" as="geometry"/>
        </mxCell>
        <mxCell id="BSIZ5159ki3mFgsb3oqb-1" value="Apollo Client" style="text;html=1;resizable=0;points=[];align=center;verticalAlign=middle;labelBackgroundColor=none;" parent="1ea317790d2ca983-13" vertex="1" connectable="0">
          <mxGeometry x="-0.2" y="-3" relative="1" as="geometry">
            <mxPoint as="offset"/>
          </mxGeometry>
        </mxCell>
        <mxCell id="1ea317790d2ca983-1" value="&lt;span&gt;FrontEnd&lt;/span&gt;" style="ellipse;whiteSpace=wrap;html=1;rounded=0;shadow=1;comic=0;labelBackgroundColor=none;strokeColor=#000000;strokeWidth=1;fillColor=#FFFFFF;fontFamily=Verdana;fontSize=12;fontColor=#000000;align=center;" parent="1" vertex="1">
          <mxGeometry x="296.5" y="285" width="90" height="60" as="geometry"/>
        </mxCell>
        <mxCell id="1ea317790d2ca983-21" value="Apollo Client" style="edgeStyle=none;rounded=1;html=1;labelBackgroundColor=none;startArrow=none;startFill=0;startSize=5;endArrow=classicThin;endFill=1;endSize=5;jettySize=auto;orthogonalLoop=1;strokeColor=#B3B3B3;strokeWidth=1;fontFamily=Verdana;fontSize=12;fontColor=#000000;entryX=1;entryY=0.5;entryDx=0;entryDy=0;exitX=0;exitY=0.5;exitDx=0;exitDy=0;" parent="1" source="1ea317790d2ca983-7" target="1ea317790d2ca983-9" edge="1">
          <mxGeometry relative="1" as="geometry">
            <mxPoint x="572.6088147727455" y="472.48534383738775" as="sourcePoint"/>
          </mxGeometry>
        </mxCell>
        <mxCell id="1ea317790d2ca983-6" value="&lt;span&gt;Postgres&lt;/span&gt;" style="ellipse;whiteSpace=wrap;html=1;rounded=0;shadow=1;comic=0;labelBackgroundColor=none;strokeColor=#000000;strokeWidth=1;fillColor=#FFFFFF;fontFamily=Verdana;fontSize=12;fontColor=#000000;align=center;" parent="1" vertex="1">
          <mxGeometry x="704" y="425" width="75" height="50" as="geometry"/>
        </mxCell>
        <mxCell id="1ea317790d2ca983-24" value="Trigger in DB" style="edgeStyle=none;rounded=1;html=1;labelBackgroundColor=none;startArrow=none;startFill=0;startSize=5;endArrow=classicThin;endFill=1;endSize=5;jettySize=auto;orthogonalLoop=1;strokeColor=#B3B3B3;strokeWidth=1;fontFamily=Verdana;fontSize=12;fontColor=#000000;entryX=1;entryY=0.5;entryDx=0;entryDy=0;" parent="1" source="1ea317790d2ca983-6" target="1ea317790d2ca983-7" edge="1">
          <mxGeometry relative="1" as="geometry">
            <mxPoint x="577.1414587743684" y="746.2829175487368" as="targetPoint"/>
          </mxGeometry>
        </mxCell>
        <mxCell id="1ea317790d2ca983-7" value="&lt;span&gt;microservice&lt;/span&gt;" style="ellipse;whiteSpace=wrap;html=1;rounded=0;shadow=1;comic=0;labelBackgroundColor=none;strokeColor=#000000;strokeWidth=1;fillColor=#FFFFFF;fontFamily=Verdana;fontSize=12;fontColor=#000000;align=center;" parent="1" vertex="1">
          <mxGeometry x="504" y="425" width="80" height="50" as="geometry"/>
        </mxCell>
        <mxCell id="1ea317790d2ca983-19" value="Nexus Prisma" style="edgeStyle=none;rounded=1;html=1;labelBackgroundColor=none;startArrow=none;startFill=0;startSize=5;endArrow=classicThin;endFill=1;endSize=5;jettySize=auto;orthogonalLoop=1;strokeColor=#B3B3B3;strokeWidth=1;fontFamily=Verdana;fontSize=12;fontColor=#000000;" parent="1" source="1ea317790d2ca983-9" target="1ea317790d2ca983-10" edge="1">
          <mxGeometry relative="1" as="geometry"/>
        </mxCell>
        <mxCell id="1ea317790d2ca983-9" value="Backend" style="ellipse;whiteSpace=wrap;html=1;rounded=0;shadow=1;comic=0;labelBackgroundColor=none;strokeColor=#000000;strokeWidth=1;fillColor=#FFFFFF;fontFamily=Verdana;fontSize=12;fontColor=#000000;align=center;" parent="1" vertex="1">
          <mxGeometry x="304" y="425" width="75" height="50" as="geometry"/>
        </mxCell>
        <mxCell id="1ea317790d2ca983-20" value="" style="edgeStyle=none;rounded=1;html=1;labelBackgroundColor=none;startArrow=none;startFill=0;startSize=5;endArrow=classicThin;endFill=1;endSize=5;jettySize=auto;orthogonalLoop=1;strokeColor=#B3B3B3;strokeWidth=1;fontFamily=Verdana;fontSize=12;fontColor=#000000;" parent="1" source="1ea317790d2ca983-10" target="1ea317790d2ca983-11" edge="1">
          <mxGeometry relative="1" as="geometry"/>
        </mxCell>
        <mxCell id="BSIZ5159ki3mFgsb3oqb-2" value="Prisma" style="text;html=1;resizable=0;points=[];align=center;verticalAlign=middle;labelBackgroundColor=none;" parent="1ea317790d2ca983-20" vertex="1" connectable="0">
          <mxGeometry x="-0.04" y="2" relative="1" as="geometry">
            <mxPoint x="-2" y="-6" as="offset"/>
          </mxGeometry>
        </mxCell>
        <mxCell id="1ea317790d2ca983-10" value="&lt;span&gt;Primsa&lt;/span&gt;" style="ellipse;whiteSpace=wrap;html=1;rounded=0;shadow=1;comic=0;labelBackgroundColor=none;strokeColor=#000000;strokeWidth=1;fillColor=#FFFFFF;fontFamily=Verdana;fontSize=12;fontColor=#000000;align=center;" parent="1" vertex="1">
          <mxGeometry x="304" y="555" width="75" height="50" as="geometry"/>
        </mxCell>
        <mxCell id="1ea317790d2ca983-11" value="&lt;span&gt;Postgres&lt;/span&gt;" style="ellipse;whiteSpace=wrap;html=1;rounded=0;shadow=1;comic=0;labelBackgroundColor=none;strokeColor=#000000;strokeWidth=1;fillColor=#FFFFFF;fontFamily=Verdana;fontSize=12;fontColor=#000000;align=center;" parent="1" vertex="1">
          <mxGeometry x="304" y="660" width="75" height="50" as="geometry"/>
        </mxCell>
        <mxCell id="7a5-o8HqeozauI7hd3fz-2" value="" style="shape=image;verticalLabelPosition=bottom;labelBackgroundColor=#ffffff;verticalAlign=top;aspect=fixed;imageAspect=0;image=data:image/png,iVBORw0KGgoAAAANSUhEUgAAAGoAAADICAYAAAAA9XRyAAASmXpUWHRSYXcgcHJvZmlsZSB0eXBlIGV4aWYAAHjarZppdus6jIT/cxW9BBKcl8PxnN5BL78/UHJiO9PtIXkvtiVZJIGqQoG6Zv3Xf27zH/xEn5IJMZdUU7L8hBqqNN4Ue/1cr86G8/f8pHafc6/HzXh8STjkefX3F9Z9feN4/PxCDvfx/nrc5HHfp9w3ch83Pj9eR9b3857kfSMv13F3fzb1/kJLT8u5/5dx3/a++fvnkAnGjNzPi5Hlnbfnr1wjeWbhq2/8dfy1PooeCbyPnG28i1/jZ84k8vcB/Hj3Fj/7mJn/DIe5IntfkN7idB938e24/xhGXmbk5GNkeZ7RnM7b55+n+O09y97rWl0L4KiGdC/qsZTzjgs74fTna4nfzP+R9/n8Vn6LbXaQtclSu7GdD9UJY28X3HTNbbfO63CDKQZZknkVGeLPseKzVBn+SgG/bks25Gf6QjYGmfMclo+5uDNu1fEYrDDydFwpjpuR49df837gf/v7cqO9FebO2XLFCVgwL1F8MQ3NnP7lKhLi9h3TeOLrzPVi3380sZ4MxhPmwgKb7dctenSf2PInz95Gw6XBXnxxed43IESMHZkM6A7OJuejS85mkewccSzkpzFz8UE6GXDRRJnMUoL3ieQU0bH5TnbnWolyHUZelBo++UxqIBDJCiGGBN8KEGom+hhijCnmWGKNLfkUUkwp5aQ61bLPIceccs4l19yKL6HEkkoupdTSqlSPjEVTU8211FpbY9AWGvdqXN840KX7Hnrsqedeeu1tAJ8RRhxp5FFGHW3K9BMJMDPNPMussy23gNIKK6608iqrrrbB2vY77LjTzrvsuttH1txN25esvWfu96y5O2tyEqXX5c+scTjnxy2cyknUnJExCY6MZ80AgBbNmS0uBNHMac5sFW88usUsoyZnOs0YGQzLSdzuI3efmfsxb4bo/k/zJt9lzmjq/j8yZzR1T5n7mrdvsjbbkVt/EqQsJKYopId+XLBKk8IVwpibAlGUFttxL6IukWUO6kGtFLyy/CyyW93b7pZyZd6GqZcZ0k5Ol1D2GJ1FDgmpkJpeyw6u+hGZcm5h1Z78cmGSTBYbOoGuMQZpphU3UYte18pzUAVz3anWrTU19FT7GDPIXiy6eQbdUvsKw+04Wh0zjbIZb1kzwYXMRuD2zMPvXYjYqLn7OQIg7HWktWrsLu/sZLiWR5pMNfqyVw/WjZT3EFMISObdbmOyZJaD7i8f9OQP52LvxJtE6zGiNamh3vQh2UrymyHwBSVytnk/3PmqX91nik7w50Yozk9njZ7O1IG0Jp/7mtxRnIaFFARwQlIbRR/K/TxH5m/+fQF+yQxtEc9gU/JFUmEJo5EEOGYYZvvZeoAQ+iYMCFZDKGOF7FcJS/rYfaS4bUzbUw+9W5vMAxPZJQQYVF03+KLZ84zBrr5D27nNBO3KRJ5hsutlZY1LmKhIh+BTIZkWy7C1oR9wBVUPBv0GxqlJBwiYm11i3932AcoWLBp9KN9aKd7lU1PhpK+O3LvlkwJ7+7a9ycqKBzvu16XuYAUEZRcipho2goxcIQwrhYRArg4qMDU57xbzWAYMa8b5Ho7gvIuLG4FZvtBm7muTTbRHbZnzeybNZ0wrta5Xi8WVrLrR7E743s4/zs5USwHM6DvVKpA6wSuF0gbaEafvZHfWvlFKAzXn0Z0aWT8WJAZVlVBzivgHFWHfZ4J3EOJAYQKNnMmLzv78ZTHWNIS6OeQ6OupsEzAUmUtsOU7AlWfQDwmWrg6UehgW8cqsAW3bJW9po3cRAzawPnwdvUbkXq8AXgeiG23cE/kodhE73xtaZMPavsy5UyEOps/VOdmIPdnXigPOPMOv8zduHwlMiS5EtdT3q1slniw9chSNpgjdfCRp30mKCo6BdOwqiiA0pp8secIC6CLgnnbjvSh6o4RtdmTW0cVOwIlJodxs3sQ2/FnW0+n9fDoB5NRjDutavElpj9Sl3cfKPgcK9jONO1GfadIkhdYgCl9ucGfDpTin9IOjPSGctPl9llZv15it6sdZSEduWSHmWCV3a5VZG7tXpCwmRnZoaYboRCDHwfjEZrmtXAOSYA9+6By0pahtl7Mock7J2M3AJl7gzsyRaeeRNcDU+6Ph+jedrOJy2+Gifbz6aRF9zXMNrhiNwzyCVrnddIQhz1Uoj9yAexe5xsWWXJHZjMSdGTWmPpEdt5tSxDqsNDdjFWQ14wPOTa2WlaBAov4/nwYznyfDoG2Yqa06jX7NLUSWMoST0GNE6zpAWR6z6hpRd0SyaV06KOUVh3DgMY52bONa7wiKhglwcyL+mCWNog67o+jHI0VMjEQAUwD5W36YBEhawG8PrVhMuh2QQIuFAiO1kECLk1FJQ7y5GcbqQK7y5VXDW3qfshtKOoyL2tFer7kZl/+JUYhp/1VLzaeYKsCpWEFYOhfiszAVRG8FjCI3U5E/BHyhH4Q/BDRfGHiz7ZN+GvivBHxXSnNJ5eHhYSHrffDw32h4p9f8yMInEmrKX2nIHN4Sba5M6zyeuKhl5iRLKVGu1zc6gv4XQpq/GEkwlZMPSj4Rcr8Q8sToZuRPfPxCx0++sbZ11UXze2F8KYKjnQMDe0Oc5msWzfcFD9/pBi5LM3XIyM03Db3uHrVvOWcO6SCFEqydD8leqD25Bl6/s405nlpo/i6GF3q/FLs8pe7LSypbzRtdKffvJmfjJ//WSXMSs9GaP5J9qe/PZDSb3OH28OE/UxUqsnYM75pOFmowHfqK6OdMHzbUegQD9KTZi1pwiWZxpF0GeRLfi+8OraVXgsURI9ln045iEXIaJ9hBF5V6xbKbUUqcBakqmkuSgL8Y2Ep6QNoYEbWQOL1MFP1c5APxmUrjyYBu900vqSExcF0RPOthFH9JU48IzGi529FdcLla3LAjTmoJcMxp9orItgKKdXtRsm4gSKDTk6aJU5BpxBmDPqd7nHekscB7/+mcomn9D+EAEP+CJ/MA1P8VT+aF6H/iaf+IJ/MJmV/xpCdpgUO/yV3JsY3ZRRivclsMa9009Ve1Hahvod9siAaFhkpFmSSKxJ9PIdM0nBATtpBqzAvaw3/hrbneA46wKy1SW5qWEzeGR1hLUa5r/bKLan+UAQsowLRGbcgQsIMj7Y0HDfqShH0O2kKnlv5JOV6wgNH6gIJEh75/K+2vDvo7GJjfTPTfrc6ni0ZqX8r+Tzb6F6N8lXHzXR2/y7jUdHwVbVvDDMNfSi9ERVrmornNz1Awz1i4oBAXVxa6Oz9OtKhGQwlPJQNfU6KQZ+6nc3d+pelW70ul9nhG7ValyQt169maUEpYMt8ijTA1YmurTyGR7neplAhiUCLWr37H2n/23KGGY9rM1A7ncJbV7ktM3mzbj07g2bqZ2IBQm9xhhLhQREEWJMSyx86+17HBIwHtNPvFQpIdqz89oVxBkXLoZWZPcNrJVvwQN7hPIa51OV+z0w1cnwnSCnEgl61UF6l4aB6Snl1VS9b1vnBtHGTVmvqToBHTCh2XSsw6EqOl5Mcuu3ij179ph3/WDmsTxWEOWwTDkCcNN8ngesF4twrEa+2+LgOxI8gQ/BtTwTQiriHqVmBjZgt+T9evwrxbw48FT9uQPZkEV4FpFKaWtgpb5Wd3hYqWHtAZLENjYceIlmi7QYLRZYeVFIxGTky9hQ/L2L1uRMX9vSd8soR/239uYRwRiDXRhoysW42J2jqGr3PCMQ560b2jfP5DrFDqbamNTUeNmvy0PT3QNr5HK5SFnnQbYvmy9BHPmv2yiaAyFq/OSuy+uoJG9Yf9lGm/4uU5q1XSqtz008GLdlFcmnSvKFDos7gH9nTT88begR5O7wIfxkbLC3r0WCxwyCz+SMPDsnrRrYCPeA31JgBAtwcO/LTzu8qS+a3p+FnMGB6UY1J87bHakLgRTB1ktjU0nyJPfvlruarqagK6G+jskMo0MTbMEeh7rJETn3RPjIuoAJA2wtKZFsVxJ3Rge1yD96SHRpT6QkTREl1EH7UFjApmhSNWvYcXnA9JwIQYpg0ygj5VHZUeIjHx4FGyKk/utqwnAOLBv+z8NPNuT/7BnagWHlf5iQ3Sf8OjXXkBHqzwUF6U8sNdrXK1Wc3E1JtRrVF0XfalalrPcjy25vIfH0A6MML/vwLpScSeNeyG0TBfQHRBSHv3lM4lP1xx2pXPimceW0eYYH0ycZU8p48IWSTOdASfa4o0o50mxhXNZkUVbALasYeJaRxADGFzF4X30tK7tvZSpRdXVAcRhnQtPCsy8QHn4/UhDgt7q8DhRF2jHyVVW58GkDaV0cBcWhzqRRe3EoVcszLO/d0lKVoBw3NWzUdam2qDbvg39elBCVEcvvyliulj+o+kRlY3z3YaBsNQ24u2fD7i6r+g4ws43DzEuQxq8KdBUxwmU5dUFGsk13tVpnqMURCtPZ2syUi+JHSqrnwkC0HW7fzTwLrbRvQ0mVGTSFFlMnCiLHVaO8xxOORq05q9UZoS1mwr0oUMugBGnkIpX6Mm6YmsRHqRoQ+26Kqreixikj9j8iQ/l6/yACRO5omsoKdWd6sjrgcTUWjLpaigO7xo1jpYqyo4BVW4sOiO+7SipYnhhYZVkV5bRr2qCpyWoaOQVhteERWRHLgJfnWePSyaa/pqeqhFwaVs+uapWh8f+BY5Pi12XcPMkKEOhCeYXmmzRriImu6v0uspzOjwdZsEorXH1ZSPhU8Iya1gqDkYRjSTb7PagZdJsJmlFO4yxlWzw3zfI6GHKE4vW+hX3NXoefTFaavhaoz62AOgrKx9THoC3yUDB3yKPX+wN2GhCmFOhqaT6mRlRn3I3BL4HrRrwFubyhYSXWTBvohb9Bc4qUTay6RpHd3WtDRJFFX6/kwriKUiwRH9zC3MuvRRWgPrqebkUDowMvusyRZMl/NlJPS6L00SginUaQApZJrwIbFu6sa+dlfUciDDJIRaow9iCgZ4YowwM8cc0mAeJdIGl1xHj9QmzEy2TR+cV/XHTf+dyAxJxW30lBqdhu5PMsb0V9Em28xVn9tovLI+e8jmXKQdfXxc1BI3fLnoXDOeb8Q12izlpFlT2ASju04yPNTAj8V6LJVNI1LPpoeq3YeTeDpISrKmMivy8W0xPxbHJWKoc5hYOg85/UyGktoFMClqAYb/lAVPwz9VN4bVZ+knku1EEs+EsaFSGn1FE32xU/usdP6JjYPblOoKL6cwL310STcNZpG5SDeCTaM6Y2uT7gqA+WmqWimMMaYACFsNrO47SHW0FerWsOikXd1jHnipTho9ttFbfdQaVxZaFjJviqpQwrVjojPS5PWBIc0KHlNo6ypQ6VoQsdUgDGuovGe+zBnYyoKSp/820JF+JrFOLCof8Oc4qqPzCKbOaCd37VmHAvCOk9mjXkWEPl5LO/XLDGoJ8ho8nhdFLP3yt/G4cuYyW0bMyUvFVw7dWMRXo1ekWBpFi1KHm6nNlKwPEyOFj8DRmNCvQ1u8qD6LHtqKNNWZQu/AfZgNM9Uoras45VJk8t4ZqC0I4NLHhyO0NXIEYUUW9QLblbzlS+oBsTUBcGB5AsHhZ0cZVHOXLda2mqTbz+j8VBOOLxj0UzbMwotrar9qn44sySbwAYZ38FZSHmqr8GiQSlD9bmaNk/lTELxVRdKHbZ72Ebk7OyuR9jBoL6bbI3SnZLmjtarMyLNUsEtfMLxR4WTpw8ESmOTKplIG7UGXom1SNEbtudeolEN4Yy+CSgGuoA8xaUtxoT4YxEq2E6xo97OHmm2hNNIJ0boALDo93djQDU/kYcDstFEybW3orYLmnyaTRaJHoWDL3DjbpwsrPbSB6WXRjR7tGagz/Cyl6YNqvAcVjX60coXumMRrL8Vwfkk6T2fBFsvBUun4xbe7Wb+kjAlVrW30K9rncn68nDfaxpZrC7vruCpg1/5Hs/s8hBft2Wl49XqCde+dYMDTNd8zpWJ0QtfjYu23HwPy8Z7SGVBHA97LVooLBnA73T5q9TyRh7y4LUMCqcO4u1KJVXDaNEpfRHrDPQBDSiAUA4NwVk+hz4FOnexHJ4Rv6r8SK5hRfZhNHS1IGX3noNi6XbBuGS3DJUWFF6bHtpFpDNIsoxVRW3mKR4mAixmqsKEzCSLR/FH34RKhEmxBohaosujOHkUI6uZ6GkANFyvsyg7Piyc/eMjqlcS4LAvMEFusKB7DgpYQ6BIdg4k6ThBEC2LLselpUO3LebaDIaIWe3oRrAdxhwYCNWlMYEPEiHArFAHVLtqH7apGI3Ip1HKJBqvD7YXdo8cZamxpRZkBq0aEXb/Qq1tmvGcw0JtDr2tWuNyoECtYbdan7gW3p4cf+KOp/eh/A9KtrOQMuPmeAAABhWlDQ1BJQ0MgcHJvZmlsZQAAeJx9kT1Iw0AcxV9bi6ItDnYQcchQnSyIFREnrUIRKoRaoVUHk0u/oElDkuLiKLgWHPxYrDq4OOvq4CoIgh8gLq5Oii5S4v+SQosYD4778e7e4+4d4G9UmGp2jQOqZhnpZELI5laF7lf0IYgw4piRmKnPiWIKnuPrHj6+3sV4lve5P0dYyZsM8AnEs0w3LOIN4qlNS+e8TxxhJUkhPiceM+iCxI9cl11+41x02M8zI0YmPU8cIRaKHSx3MCsZKvEkcVRRNcr3Z11WOG9xVis11ronf2Eor60sc53mMJJYxBJECJBRQxkVWIjRqpFiIk37CQ//kOMXySWTqwxGjgVUoUJy/OB/8LtbsxCfcJNCCSD4YtsfI0D3LtCs2/b3sW03T4DAM3Cltf3VBjD9SXq9rUWPgP5t4OK6rcl7wOUOMPikS4bkSAGa/kIBeD+jb8oBA7dA75rbW2sfpw9AhrpK3QAHh8BokbLXPd7d09nbv2da/f0AwApyxvhCVx8AAAAGYktHRAD/AP8A/6C9p5MAAAAJcEhZcwAALiMAAC4jAXilP3YAAAAHdElNRQfjCwUNNC3qJz5+AAAgAElEQVR42u2dW48kx5Xf/yci8lbXnulpci6kJI4oCqRswAIoSKJsr0cQxNXFgLGGBoZvTwbkFz8s/GgYGPgr+ImA/bh+aAMGFrLplWBosHqgSUDrXaxgSysTFjWzwyFn+jJd1VVZmRkRxw+ZVZWVlVlV3V3V0zPKBAZTXZWnIitOxIkT53ciAqiv+qqv9V30NAp95513nK985Ss7zNwgIvdZqzRrbSSECD/88MO927dvJwD4mVfU7u6uvHbtWmd7e/v3HMd5XSn1qud5n2dmj4jE02osZ6o0ImutZWaOtNb3kiT5OI7jPzs4OPgfDx8+7N2+fds8U4p67733Lruue8nzvNdbrdY3Xdd9Qyn1quM4NwEQM4OIQPTM6QrMDACcJMl9a+3DMAx/PhgM/iSKol/GcXz41ltvHTwTirp7965/5cqV7wRB8PWtra1/IYToMrPITAcbYwggCCHgOKqsEkBEGCuz7L0llbh2+bGMtRbWWgBgIQRl97K19kmv1/sPg8Hgf+7t7f33W7dujS60ot59913v1Vdf/VedTuefKKVeEUK0R6ORCMMQw2GIQRgiji26nQDtVhuXLm3BGANmhjFmphKrKrVYmVVKWKe8lBJSSoRhiH7/GEe9I/ieD9d10W63EQS+tdb2tda/6fV6f/Thhx/+++9+97vROupUrVtJ77//ficIgjebzeZ3lFKvAOj0en0aDAaIoghxrPF4bw/MQLt5Ddam5jwcjdLPo3iuFY8rsqwyy1r8JuSFEGg2G2g2m5MedXDYQ6thEQQJtNbQuiWazWZHKfVKs9n8zo0bN/7X+++///Ovfe1rvQulqN3dXamU2mm3278fBME3rLXuaBSh1zvCx588RhRFIMy2VmSVE0URekc93H/wcPYe8OTv/Ouqv1MzsX75oBHgMy9dR6PRmBgiawwODg+AQ0AqiZeuvwgpFXzf6wRB8I12u/37SZL8dnd3d3BWB2Otirp58+aNbEz6QwByf/+Ajo+P8eDjTyc/OF8ZRAQwF2zx4kqdkS/8vVF55txAkTOV2WujDT669wDGWGo2m9jZueJubW39YRiGf3nz5s0EwL2z1K1Yp6La7fYPut3ubWZWvX6f+sfH+PTR3lxF5Cuo4PaWVtIy+WWVvBb5mXGuWv7TR3vo9fvo9fsEQHW73dvtdvsHZ61bsUaz57qu+yXHcd4AgH7/GP1BiETryY8f/7iyigDzdFAvUeQieVISQkk4ngfX9+H5weS16/lwfR+O58HxPJCS4IJ5K35/afnMuWktV8onicbxcIR+/xjMDMdx3vA870u7u7vuRTB99NnPfrbted4rjuO8bIzhwXBIg+Pj2Qot/ri82cvmU2MljCtroTwYjlJoNJvwHAdSiVKnYPIawCgxCI+HsFYjzhpRWW8qK3++bXGp/HAwwMB3YYzlrD5euXnzZufOnTsHd+7csU9NUXfv3pW+73+FiK5Yy24Yhjg87MMau3BAJ6KJMzGtzPlxo0redRxcu/oCgiCAEGJamVyoWJ6+ZmaMOi0kcYwHH386N35Vll8wfePnL8oRCFprHB72EV0bkRANVwix7XneV7/97W//9M6dO+FTM32PHz8WruteFUK4zBZJkkycBK4Ig829n2v94xa9SL7bbWPnyiU0Gg0QAdYaGGNgdPZ/9lonGlrr9H1tAAZ834Pv+9jZ2S71AFcpv8w0z4x1zIjjGNZaEJGnlLoRRZF86l4fEQUARDpptWA2Cz0vQja/GZsPKq+YKnnXdyfm0loLrQ2sNbPmtOAEMAOu60IIASElpKS0WKZKBcyYvsIYxcyVLj6zgTETKyeIKHAch56qolqtFkkpu+PvY7YTs1A6+OdNX8GZoJJgSZm8KxWUUpM5WDiK8MmnjxfKEwm8/NKLCIK0FzrKWTiHquz9Jc8/5+YTgdmOtauklFu+74un3qNmMEBW6UUvqvh/fsILWtyqy3ojZ3VmOW3jS+WJYHnaOzgrl9nOjE2l8jPzKEyev2xsG382rod1BJ3XoqggCCjf1MYR8bLWmf9hxR6VH6Oqg5PTSs/reFzZi+Vtdi8j78cUPTxaGgKdff4y+UkdpCEoAkD9dG51cXoU5+ZECz24gnteZkYWy0/HHlpVPteJJ/ILQkmci0IUTV/+NxblJ5/xepii2oSS8oypKgoxM8Lnxqiy8WixPCa9pGycWaX8qkjFKvJFszcTHitE5y+UosYPVmxtZePVzDwqZy6rxrb5Vj6dHxWdl9KxbaJUTE1f9saiHjX1UOdjfWXm8pnsUYta6cyP4AXhpTJ55hnTx6vIT1r5WKZaMaVxSJqN9ZWZ99Lxdw2X2FSPKvamslhdVfS8eF+p/NiZ4JnhbaH8pDHkexRXm9o5D5XnnYlFpnpdHt9Ge1RZC50f2Gfd8+IYtVx+1vSVIYvySHiuE+dM3yL5KmeieO/8XIovbo8qs81zrXt87wIetVw+mw/xavJpYygEQ3JOyEL5BTyqVJ7Xm0G2Mfe8aoxaFENblUfNRa4Jq/Momo5Rm+BR5UHcC9ijqrr82nkUzSOThTypZIzaBI+aiWRcZEXNZPQs40kVPKpqfJmXn20cVa592aR6Th6ryC/mUcUJ8jqdiY15ffmB9jQ8qkpmVj6tvGKEYaF8MbxI1V7iSXhUmZe4TvOnNmX6iE7Gc6pifZXyPG+aqiafiwIilTxpmfwSHlXlVF0o95wrwkHr5FGUeXCYzImWyyMLxnIuQlEVlTg7j+LSvMILFUIqRs83waOKQ05ZpVXKz5OVjfCoC2/6+Lx4FE/HKFpFnkQh7LRZHpWPeV7oMep8edRqPGkuKHs+POpi96iaR9U8quZRNY+qeVTNo2oeVfOomkfVPKrmUTWPqnlUzaNqHlXzqJpH1Tyq5lE1j6p5VM2jah5V86iaR9U8quZRNY+qeVTNo2oeVfOomkfVPKrmUTWPqnlUzaNqHlXzqJpH1Tyq5lE1j6p5VM2jah5V86iaR9U8quZRNY+qeVTNo2oeVfOomkfVPKrmUc8mjwIYbFfjUenuyTWPeio8iplhrF2JR7Gdbrxd86hz5lFaa8RxvFSemRBrDZt1v5pHnTuPOsH5UWOHpeZRm+dRQgJCiILZwVIexcQQ+QkzCNKRU+fgAvOojYxRZ+VRVec3KeWg0Wyh4UtIJSGkmJSllDM7ppTICyIIQRMPUEiJK5cvYTjSSOIE4XAIhj3z+VETR+OiB2XXwaOKP951HLS6XXSbAfzAnzEtQkr4nsIRlp8/JaQEiVRhQeAj8D00ohhaJ3ioYyRxcubzozbBozZm+s7Ko4pj2dUXd3Cp3YTveyDQzBlR1hhobVc6/4ltdn+iYYwBQHBdB57v48a1FyCVXMv5Ub+TPKrZCuA4TnoMERGGw2H+dGmMjMEwDJfyJGsthrGB5RBSCDAAKQSCwIcUEnBctJoNDMIhkljXPOokPIoEodVsTMYkayx6x0P0nvSQGANdcsR4lRfKDDx6vD953wHQaDdxzVFQyoGUEs2Gnx4cFg9qHnUSHkUMOI6bemaWMRqN0Ov10Is1YgaGcfE8d5SeylY8rVoRo+kCtj/AqNOC56WntSnlwPN89PrHNY86EY/KQkV5NVrD+D9PCA8GhD/9VC6M8ZWNIQzGFZ/wjR2Dv301VUB6FiEyb5CWMKmaR83LZMHX9OM0TgdixBYYGsaTGPOJevlxrzAGju9VAggtw9o0rFT0Puei9jWPWsyjsMzOz2SqlMiUhKlKvc1xNJ55Dl/UPGoFHpXPHMrH5+bmYYt6VPELmCdO/KRNjKPxheBwzaNOyqNo9g9mO+0oZYpZ9AXjHpRzpfM9u2x8rXnUEh6VX4GRV8ykMRQVk//OfG8qKANjZRQjCFXPX/OoxTwKuRM+J4rK+Mace190HIqKLJtcz5Q/733WPOqkPKqQ3TojX+ZIMFc7HVz0Kuflax51Wh5VTOxni1xmS6kLXv0Fs4okosJHNY86PY8qGaMqbyhzyUvGqPnyMdNTLhKPuvDro/IVSgt40NxAVuVoVEXAJ8ky9fqoE/GoqjVNk4SUvHyVl1dmCnOvxwCRcysRy5yaen3UAh41N3kt7bk07yxUTX6rIiIz5WNuIlvzqFV5FIn5zpBHG1VxvjJzx7OpsuNcv5meXRL5r3nUquujuCzKwHPylbHBirEqLYtnnYmSyH/No1bkUWUhO85VbMmH84rl+S+aRj7Ko+c1jzohj5rvTIV4YtHDW9SSc/eOe9R44lw2RtU86lQ8Ku/15VrrKXhUcTypeVTNo2oeVfOomkfVPKrmUTWPqnlUzaNqHlXzqJpH1Tyq5lE1j6p5VM2jah5V86iaR5WNRRvnUah51Gl5FBiwzBBCTP65pNEgYNsDgLGrzsWmn6tYO/P/JZfhEadLbARBZgu32TK0ts8Xj9rd3ZU7OzvkOI5jrRWb4lE2c40JBCkElFRoesAlC1xrUk5Jotw9m1FYem/XE+h6BMchSCknW/akW/Dw2nkUEQkppfPOO+84APDaa6/xrVu39Lko6urVqy9IKRtE1BFCbBORs24eZa3Fk6M+Go0ARATXdfHii9v45qUYYZjg+6/Ne1gzU4TCktH8vUIItFtButJQKjAzjgcjHA8Ha+VRROQw8+VGo3Hz9ddf73P64eju3bv3V1XWiRX1s5/97Jq14m8Mo+G/OToa3ABsoJxAXL5smsxoAuvfr28wHCIMQxjHwPd9NIIGAj9Ap1M+QS6bjFZOFYggSMAYgzAMcdTvVcbwTs+j8KK19p8f9Yf/cHA8sCACsWWh5Ec//elP/5vv+//1rbfe+sXaFPWjH/2oAeCrYTT6B0bbv8lABxAKMNMJIzawXx8TesdDtAILEKCkhBByppWXemeT03Bo8t7kNWXfbxmRjqCNxjCKwcaufb8+IpIAtY0x7fS9dJw0hpujWJvEhM0f//jH/+/tt98elgywJ1dUp9PZHsX660kc/wED7fxAW3iwtfOo/lEfo2GEK9sM1/MghM3W9tK8ZmbkuWLMStVhjUUURQjDEZ4c9Te3Xx9h3sowbyXaflUn5oVup/EfF5nCEynKAn+XjXmDgXbVrL2KR1U6E7zCjsyZfJxEePjJXqkpW/ReVfll9y70UBfwqLJ9lGbmURWbPzKzB+AFbe3bnuP8EYD+mRVlErNtLZpV4aDiwL3x/fqwhAetUf4sPGq2N86Xz8yCDe+EOhRrifURkQCYiq2nbEu2c9mvDwt40Lrlz8qjeP7+aeAZRMRSKUVrDMrSvDkhqnSBy5hNlSe16n59tAoPWrf8WXkUobJ8sUIE41TR87IfkncozuX8qGU8aN3yZ+VRSzYozrZ12gzmKPaq4ji18fOjsIAHbUD+rDyKFvAwIdYemeDKbUPzXs669+urcgAAwFgNWIZhhhQqm2sRpFQw2iLWERgERxKYJaQoN3W8aL+/M+zXlx/fyp7frhAPVGfpTTOTvHys7jzOj8qVHw6OMYxjaG3RDAK0mg14Xhu+7+Po6AkO9/bBRGg2AzQaLQCyEsGcpPyz8Khi+dYu7lWnUBSVxsHyD3Yu50flyv/zP/8L3Lv3EQ4PD/HFL34RX/361/HyS9fh+z6GgyP88R//Fxhj8MUvvo6/83t/b7IfbRlz2sT5UWUWI19+uoXqBnpU2dwh/2Dndn5UVv7WVgdEn8XNmzfx1ltvodvtgoigtcbOzg6+/OUvIwxDtNvt6uff4PlRXDEFyZe/gR5VEjYpaTkbPz8q991BkO6QGQQBrl69mqKKbIdMIsL169cxHA5L50lVPGmu/DPwqHF8sSqSkbK2tfeoEm+q4OGcy/lRuXs6nQ6MYTQaPuI4hhACo9EIw+EQvu/jxo0biKIIvd4xhBSVacibOj9q2fMLos30qJIQSGmPWgePWsUD7Ha3EIYh4jjGRx99hFdffRXtdhtbW1sAgFarheFwCGPS5xIkKuOEleWfdX0UVSOXDfWokvGjsNTmPM+PYjAuX74E5i1YazEYDKC1hhAi24U5BYRB0ES3myDWeiWedJLyz7I+isGb6lGzkebihLesR23i/Kh8+Y7jwvd9CJES4LEjAQC9Xg/b29uQErh8eQuP9g7Ssav4/Bs8P2o8RhXHtBnztymvr+hMbJpHVbVyAuG9995DFI3QbDZx69Yt+L6PJEkwGAzw6NGjTFESUlY8/3mcH1XGo3LOxAZ6FBZmkW6SR1Whi0EY4uO/foAwHICI8Oabb048wddffx3GGAwGA+wfPIGQqnTqsJKHugkelZm+jUQmLhqPunHtJTSDFqIoRKfTxXAYZuOUhOO4SJIISZJMcfwF41Ebi/UVaehJedTMgLuAR1VFJYpB0Gs3ruP6jRuTexLNiHWUfT6c3KccdyavvUo5VSGyKh5VKr+ARxWff5XUv5pH1Tyq5lE1j6p51LPJo1biSWeVf8o8SqyjN52WR/FMZAILz486MQ/agPy0d3GWRHk2HnUS0/dUedT4gC4AUEpCCHEqHrUqTzqLvJISSqXZudYyrJ0eKXsePOpUPao0bLKER1W54MboTFEqXVKj1KRFL5OfC9vk3O51yhMBcnzQGNKUZG3MHI+akV+RR23QmeC5B1vEo6paMYNx1BsgjiMwM3w/gOd52Op0ZnZ6WSS/KPq9Tnnf89HwHTSbTRARkkQjHA6gtamWX8CjiuVfeB41DEMox8VgOEQjCNDptOG6DuI4xmA4RHoG0XIedRKedFJ5x1G4em0HW90uhBAYDocIRyEeHxxN97t67nmUtQgHx3j8eA/Xr12FUgrNZhM3X/kMBscDaJ0gimLYXL5C0Zsqc4NXXR9VJQ8ClCC4rodWuwXf9+G5Lowx2N8/wHA4AuySHvm88SitNXr9AS5thQiCAEplJgZAHCdwHBeWbaWrXVbGSdZHlcpna6Zc10Gz0YDMwu5hGGIUpUf3/W7xqOwo8N5RD5+6Lra2Ouh02vA8D51Op/TQ4VU22ii79zTy49daG4yiEJ988ike7R/Car2UZz1XPCr/eu/gAP0wRPOwh62tFhpBAKUUpEzd9mXKqFJClVIWyU8VpDEYDDAaRej1Q/SPe+CcA7GIZz1XPCp/jzEG4XCI0WgEpYAkTkBEkEpidiccWjrOFN8rRvdXkQcAYzTiRKM/GKLX66cJOAvWVz2/PKrIg6wFW4tPPtlbOr5U/V01yT2r/Oy6xhV51hp5lDhdf1rT+qjzXN903vInWB+1oVjf+nnUufCk85bfBI/a3d2V77//fudp8qiN86Tzll8zj1LvvfdeIIToBEHwuQ8++OBDY8zwJz/5SXTnzh27cR5VYXKKi56fSfk18Kg7d+6IN954Q127dq0p2u32N69cufKvX3755T/d2dn5d1tbW29///vfb6/Ko/Kt58Q8Cgv2u8MzLr8ijxq752XXt771reYXvvCFN65fv/5vlZTyslLqMgCv0+n801ar9QfMfHTv3r1fxnH8v7XWD+I4fmit/W0cx+2jo4FKtFnL+qizrk+6yPKrro9yHAXfc2Sn077quu7f/9WvftWSUl71ff9LjuO8JoS4JIToKGaWRCSJCEKIjhCiZa3dchzHACDHcXaUUje01teEEK94ntfV2mR21WbzgHQjKeQOJWk0mhjFo7R3GQttGJYNiAUY9tx50mblBUgIKEmAIAgh4Lt+rsESpJC41G1jq9sCGJNJfLZbmnRd5yXXdf+WEKIlpdxxHOdVKeXnpJQNAFLNhko0KL0813Xf8DzvjTK321oLrTW01ik8szbjSelD+Z6HS1ttGNsA25Q5GQNEUQStLSws2JZNCi24IopA412/iErJcnEOV3VPlTyYASFK5YkZJOT8mCMIxASlBDzPg1LpclQSqWJ8z5soJAh8SLkNIUW6Q5pSUCpNBhVCBMz8PQDfKzhnbK2FMRYqH545OuohDEMKRyMEvpcV7sBxHDhu+j+BJmEd13UnhCoP2drtNlqtVmWUgJlhjMlFACyAtAFMemq20eF436Ax+h7L5O06W57Z69fOJJ1MNo6a7NU0dXSmO2yO7xFiCi+EGKOK9B6RKbLQG5YmsxCla7iCoDGxOPn6MMampCCOYbSB1glGoxFGUUxCCHQ6bajZ2FdagY/2n6Dh+/ADD44UGVsChJCThx/H4cZhHkHTfe/G9+V/2NgMCCHAzJBSzgU/i7G2qpyMMru/SqC1tLcsmvsRLVRC0crkG2C6kI5hrZm8b5lhjU1f2+n/k/uy7zLGYhgmGEVDbF/eAjNPFZV/CKsTHB8nGBwfz9lxpSS8wEe72ciUM7bP2Y5fgrIcgKlSxy1vFqYVthudhJ1Q4c6OgzhVCqHJVqMonc9lnyPfOAAizm0kbGeDtsX5IM9mteZ7eV5Z08q3sNbA2jQZxlgLmynMGIve8QBJFCNOkspQljVpnFCNzc3U1Cxen5RoDd0fYNAfnJoHeZ4H3/ehlIKjUns+3pat2APz76cHnzBIiKk+ZnYYo/L5SuG4vPGnNlvszbmF31NTyzMKAKUm1lgDbSySJN3fTydJWm/r5GGYN58qb2MntvqE65OqPKcq+SiKEEfxtGLFnD3KjS1lPAmQhUDniXkUKOs/XCnPRIAxM3urM9PEa13kHa6t/rI5mJp7OD75+qSV1heVymcVZst+WHW4CgDMiuVXyfNJ5Hl+wr+e37+6vLCFIFMxU2bh+U9Ycn5SLX92+YwOq1n3snzNz0XYL+93Vj4zfaU96rngQc+ZvCiM4c8PD3rO5MVsyALPDw96zuQLu/9jbjHZRVqf9DspX5xHTWfqF3R90u+wPLgwjyLCc8ODnhv5zMJNQkgzWa4V4YxFmieRxveYGWzNJIL9bPCkankhBCBEmnasNcCry6exUCcjAmayY8yJnj+LwKiiM1G2CmPZfnkA0O12EPgeiAjhKMbhweGJ5Jftl/e05LudNnzfhRQSgzDC0dHRJHa7TH7r0hYC3wMzYxQleHJ4mNbxCZ9/bsK7qFUuao1KSVx94Qoub2+DAOzt76Pf6yHJ9iNaJr/SfnlPSX5nZxtb3S78IMDe4z3EcYzhYLhU3lEKL+xsYzurk/2DA8RxjOPj4xOVXxrrKxujymJWc+t7pITjOGg2mgABXr8PISUoQ/bL5De5vums8p7rIggCNJtN9Ho9SKVWkhdSwnPdSZ0cHx+ndXLC8idHKJWxn6LPvyxMP5+YP5vDtlS+YsXfhZAvA5iryDPnE/pm9sw9cfmn4VGl9n+CEbKT0ypWLizyfta9X97a5JdksS5bHzV7pN/pyy/wqNR7OxVPGVNbmu9R6+ZZ5ypfILz5xNJV1kdNWi7zwvVRi8onIihrbcLMCZCuV3UcB9evvYhRZBDHQ8SjGNraPKVeuD5qfJ7tSddHbZrnnFV+Nl3gNOujqHJ91GQbAyGghIByXfh+A74n4GTJRUprvW+M2QMQdTodNwgCSg++ChGOPGit0T+OEEcj2HyOATMsGGw5RenIQlCT3ISTrY9atl/eU5MvOUL2JOujpiYGECCQkiBmSJHmmqQ9RoLA8PwArWZ63qLve/CDAK7jwPd9Vg8ePLh748aNv5ZS7jSbzX/kOE7gOI5sNlvpY2RdRWtNcZzAWgOdpTRpbWA5TeRQSs70qOeKB1X0zlXWR42TcaSS2NpqYWurBSnSzUXSTC4FpVKvWSnFmRyNG342wCUEAHfv3vW3trZellJ+wfO8zzmO83nHcV73PO/zQogrQogOM6u8iUsza6bJImMXlpkxHA651+vReO/xcboUculQWSMoyeHLco0mOX48SSzJp7Uhw/VsbXqyLqW5f8Q0SbsaJ1aSpOlkPvPAxCQIPY1AjLN+p/mYhCtXrqDb7SIIAuzt7+PwIN2TtphVNf57mjIn0O50uNloEBGl2x6EYXZ0bJpPOM4hzOUKamttzxhzqLX+MEmS/xtF0cdxHP9CAcCtW7dGAD78+c9//oiZP9FaH2W5U1ZK2ZNSXhJCBAAkAElEUkqSmXtPRCQdx3HTqAnBcRw0Go3JJvH5/LaxclJlpcpJcybSbWsYnK48zDQ28UqRX145PSt3WY5fVVLkeEkmA+n22vlsp3GmExGUciZJlo5SCIIge6YsVY7y+YvTFDkpJVzHmXptSlnHcRJrrclamgFgsr+NMcZYa0NjzKExZi+O418mSfKLKIruHRwc/NnSFVS7u7vy5s2bHoDP+L7/WSK6IqW84jjONSHEjhCi7TjOTqvVeq3RaOwAcOI45iiK1nf+9lO8XNcdmyVEUYQoilY+rdrzPOu6rgCQhGF42O/3/0prfWCMeWKt/SRJkofGmD1m3huNRr99+PDhvTAMo9u3b5t5c7vi9c477zivvfaajONYdrtdmSSJdF1XSCkJQOPq1av/cnt7+58REfb39//TwcHBf9Zau0IIXynVFkI0iMgH4GeJ8AEze0IIN+utPhE5RKSIyCMil5mlEMIlIsXMjhBCMLPKphXjLE6V69k0tfGTKUK2idnEZtqsNVubdmVNRNpaa4kosdZqItLMrJk5arVan/M87yXXdS/1+/2/ODo6+kBr3SeiyBgzYuYBgMhaO7TWDrTWfWvtSCkVX758+Qfb29v/mJlxeHi4++jRo3d6vd5ho9HgMAyN4zjm6OjIuK5rfv3rX5sf/vCHSVX9r7zYOvuS0i969913vZ2dnR4AzcyktT7c29v7sN1ucxzHyhjjSyldAI7jOEoI4RGRa62VUkrFzEpK6VhrpRBCWmuFTMPOgohEtuJEEJHIPhNERNZaGkdX0vMXJ+aNcmaQZ60iMwCb6jx9zcyTf0RksvssESVSyu8ppVwArTiOf9Xr9f7EGPNECGGYOQYQJ0mirbWxMSaWUo56vZ5WSlGn0zlkZpPm15v+4eHho1u3bj05Tc9WG7QaozfffHP0rJu+3/zmN59rNBqvMvNn4jj+zf7+/nurVPa7777rTWe8OPMwIFBfz8RVK6pWVH3ViqoVVV8X9Vqb1xiv4qUAAABuSURBVMfMvSRJPsleH4dhyM9DBTFz3xjzOI7jj40x/SAI7Gnq5KSyG1HUCy+8YMMwvD8cDj8AgNFodO/+/fv2eVBUGIYPlFJ/aYw5iuP4I6WUXkXu/v379pVXXrl/fHz8gRACJ5Gtr/qqr01f/x/IxzdQoAAtwQAAAABJRU5ErkJggg==;" vertex="1" parent="1">
          <mxGeometry x="709" y="65" width="65" height="123" as="geometry"/>
        </mxCell>
        <mxCell id="7a5-o8HqeozauI7hd3fz-3" value="" style="endArrow=classic;html=1;exitX=0.5;exitY=1;exitDx=0;exitDy=0;entryX=0.5;entryY=0;entryDx=0;entryDy=0;" edge="1" parent="1" source="7a5-o8HqeozauI7hd3fz-2" target="7a5-o8HqeozauI7hd3fz-4">
          <mxGeometry width="50" height="50" relative="1" as="geometry">
            <mxPoint x="747" y="197" as="sourcePoint"/>
            <mxPoint x="747" y="241" as="targetPoint"/>
          </mxGeometry>
        </mxCell>
        <mxCell id="7a5-o8HqeozauI7hd3fz-4" value="&lt;span&gt;Dunraven&lt;/span&gt;" style="ellipse;whiteSpace=wrap;html=1;rounded=0;shadow=1;comic=0;labelBackgroundColor=none;strokeColor=#000000;strokeWidth=1;fillColor=#FFFFFF;fontFamily=Verdana;fontSize=12;fontColor=#000000;align=center;" vertex="1" parent="1">
          <mxGeometry x="704" y="244" width="75" height="50" as="geometry"/>
        </mxCell>
        <mxCell id="7a5-o8HqeozauI7hd3fz-5" value="&lt;span&gt;EventHub Azure&lt;/span&gt;" style="ellipse;whiteSpace=wrap;html=1;rounded=0;shadow=1;comic=0;labelBackgroundColor=none;strokeColor=#000000;strokeWidth=1;fillColor=#FFFFFF;fontFamily=Verdana;fontSize=12;fontColor=#000000;align=center;" vertex="1" parent="1">
          <mxGeometry x="704" y="333.5" width="75" height="50" as="geometry"/>
        </mxCell>
        <mxCell id="7a5-o8HqeozauI7hd3fz-6" value="" style="endArrow=classic;html=1;exitX=0.5;exitY=1;exitDx=0;exitDy=0;" edge="1" parent="1" source="7a5-o8HqeozauI7hd3fz-4" target="7a5-o8HqeozauI7hd3fz-5">
          <mxGeometry width="50" height="50" relative="1" as="geometry">
            <mxPoint x="880" y="319" as="sourcePoint"/>
            <mxPoint x="930" y="269" as="targetPoint"/>
          </mxGeometry>
        </mxCell>
        <mxCell id="7a5-o8HqeozauI7hd3fz-7" value="" style="endArrow=classic;html=1;exitX=0.5;exitY=1;exitDx=0;exitDy=0;entryX=0.5;entryY=0;entryDx=0;entryDy=0;" edge="1" parent="1" source="7a5-o8HqeozauI7hd3fz-5" target="1ea317790d2ca983-6">
          <mxGeometry width="50" height="50" relative="1" as="geometry">
            <mxPoint x="751.5" y="304" as="sourcePoint"/>
            <mxPoint x="751.5" y="343.5" as="targetPoint"/>
          </mxGeometry>
        </mxCell>
        <mxCell id="7a5-o8HqeozauI7hd3fz-8" value="SigFox" style="text;html=1;" vertex="1" parent="1">
          <mxGeometry x="741.5" y="197" width="95" height="28" as="geometry"/>
        </mxCell>
        <mxCell id="7a5-o8HqeozauI7hd3fz-9" value="" style="shape=actor;whiteSpace=wrap;html=1;" vertex="1" parent="1">
          <mxGeometry x="321.5" y="145" width="40" height="60" as="geometry"/>
        </mxCell>
        <mxCell id="7a5-o8HqeozauI7hd3fz-12" value="" style="shape=image;verticalLabelPosition=bottom;labelBackgroundColor=#ffffff;verticalAlign=top;aspect=fixed;imageAspect=0;image=data:image/png,iVBORw0KGgoAAAANSUhEUgAACwAAAALJCAYAAAC50qUDAAAACXBIWXMAAC4jAAAuIwF4pT92AAAgAElEQVR4nOzd7VEkV/bg4XPbAfAAPLjs94wADxoPutoCMRYIWSDaAoEFS1uwRUR+H9KCBQ/AgtzI+d/S1qBWi5d6ycz7PBEVtHpipKpzi6wvvzqZ+r4PAGD72pQPI+LkxX9o+OfDH/zHj8tjVx7K46W//H3Td0tvFwAAAAAAAAAA2B8BMAC8w4uYdz3WfRnunlYw37u1P99HxFP583o8fN/03dMP/r8AAAAAAAAAAMAbCYAB4IU25bPyN6vtvOtRbw1B7zY9l0g41mLhVSj81PTd/X6eFgAAAAAAAAAATIcAGIDqtCmvwt5V6Lv6Ke4dh+e1OPi/fgqEAQAAAAAAAABAAAzATL2IfA/LNt9hi++RM5+8x7IxeBUHL4d/bvruofbBAAAAAAAAAABQBwEwAJNWQt/jEviu/pydarXu1jYG35cw2NZgAAAAAAAAAABmRQAMwCS0KR+XuPdM6Ms7dKsguGwMvm/67skgAQAAAAAAAACYIgEwAKNTtvqevAh+D5wUG/ZcouDlamNw03cPhgwAAAAAAAAAwNgJgAHYq7LZ92Qt9D11IuyRKBgAAAAAAAAAgNETAAOwM23Khy9i3zObfZmAx/UouOm7pUMDAAAAAAAAAGCfBMAAbE3Z7rse+2bTZibu1qLgZdN3Tw4WAAAAAAAAAIBdEQADsDFtyidrse/wODJdKvG4ioFLEPzg4AEAAAAAAAAA2BYBMADvVjb8nq8FvwemCf8hCAYAAAAAAAAAYGsEwAC8Wgl+z2z4hTdbBcG3JQh+MkIAAAAAAAAAAN5LAAzAT7Upr2/4zaYFG9GtxcBLIwUAAAAAAAAA4C0EwAD8l7LldxX9fjYd2LrnF9uBH4wcAAAAAAAAAICfEQADsL7ld/h5ZCKwV10Jgq+bvrt3FAAAAAAAAAAAvCQABqhQm/JhiX1X4e+B9wGM0nPZDLzaDvzkmAAAAAAAAAAAEAADVKJN+bgEv4uIyM4dJun7Wgz84AgBAAAAAAAAAOokAAaYsTblk7VNv6JfmJcuIq6HIFgMDAAAAAAAAABQFwEwwMyU6HdRot8j5wtVEAMDAAAAAAAAAFREAAwwA6JfYI0YGAAAAAAAAABg5gTAABPVpnxcgt8h/M3OEfiBVQx83fTdkwEBAAAAAAAAAMyDABhgQtqUD0vwK/oF3ur7sBW4bAYWAwMAAAAAAAAATJgAGGAC2pQXZdvvZ+cFbMBNCYFvDRMAAAAAAAAAYHoEwAAj1aZ8EhEXJfw9cE7AFjyWrcBXTd89GDAAAAAAAAAAwDQIgAFGpE35uAS/Q/h75GyAHeqGELhsBn4yeAAAAAAAAACA8RIAA4xAm/IQ/S4i4rPzAEbgJiKum75bOgwAAAAAAAAAgPERAAPsSdn2uygP236BMXosW4GvbQUGAAAAAAAAABgPATDAjtn2C0yUrcAAAAAAAAAAACMhAAbYAdt+gRmxFRgAAAAAAAAAYM8EwABb1KZ8VqLfL+YMzMxzRNwOMXDTd/cOFwAAAAAAAABgdwTAABvWpnwYEecRcWnbL1CJu7IR+NqBAwAAAAAAAABsnwAYYEPalI/Ltt+LiDgwV6BCj0MIXLYCP3kDAAAAAAAAAABshwAY4IPalM9K+PvFLAH+4zkibodN6E3fPRgJAAAAAAAAAMBmCYAB3qlNeVHC31MzBPhbdyUEXhoRAAAAAAAAAMBmCIAB3qBN+TAizoeYLSKOzA7g1bqIuGr67trIAAAAAAAAAAA+RgAM8Aol/L0ojwMzA3i3x/Ilitum756MEQAAAAAAAADg7QTAAD/Rpnxcot+F8Bdgo56HjcBlK7AQGAAAAAAAAADgDQTAAD9Qwt9hQ+UX8wHYKiEwAAAAAAAAAMAbCYAB1gh/AfbqZrgGN3334BgAAAAAAAAAAP6eABhA+AswNkJgAAAAAAAAAICfEAADVRP+AoyaEBgAAAAAAAAA4AcEwECVhL8AkyIEBgAAAAAAAABYIwAGqiL8BZg0ITAAAAAAAAAAUL0QAAO1EP4CzMq3EgI/OVYAAAAAAAAAoEYCYGDWhL8As/UcEVfDQwgMAAAAAAAAANRGAAzMUpvyYURclMeBUwaYrecSAV86YgAAAAAAAACgFgJgYHbalC+FvwDVeRw2vjd9d+3oAQAAAAAAAIC5EwADs9GmvBjir4g4cqoA1RpC4EXTd0tvAQAAAAAAAABgrgTAwOS1KZ8Nt3+PiOw0ASjuhm3wTd/dGwgAAAAAAAAAMDcCYGCy2pSPI2K41fupUwTgb9wM2+GbvnswIAAAAAAAAABgLgTAwOS0KR+Wjb9fnB4Ar/BcPjeumr57MjAAAAAAAAAAYOoEwMCktClfDrd0j4gDJwfAGz2WbcDXBgcAAAAAAAAATJkAGJiENuWziBiCrSMnBsAH3ZUQeGmQAAAAAAAAAMAUCYCBUWtTPi7h76mTAmDDboat8k3fPRksAAAAAAAAADAlAmBglNqUD4coKyJ+dUIAbNFz2QZ8ZcgAAAAAAAAAwFQIgIHRaVM+j4ghxDpyOgDsSFe2AS8NHAAAAAAAAAAYOwEwMBptyscRcR0Rp04FgD25KSHwkwMAAAAAAAAAAMZKAAzsXZvy4RBbRcSvTgOAEXiOiMum764cBgAAAAAAAAAwRgJgYK/alM/K1t8jJwHAyHQRsWj67t7BAAAAAAAAAABjIgAG9qJs/R3C389OAICR+1Y2Aj85KAAAAAAAAABgDD45BWDX2pQvIuJB/AvARPwSEfdtyucODAAAAAAAAAAYAxuAgZ1pUz4uW39PTR2AifoeEQvbgAEAAAAAAACAfbIBGNiJNuXLiPi/4l8AJm7YXv9QttkDAAAAAAAAAOyFDcDAVrUpn5Stv9mkAZiZu7IN+MHBAgAAAAAAAAC7JAAGtqJN+TAihu2Iv5owADP2HBGXTd9dOWQAAAAAAAAAYFcEwMDGtSmfla2/R6YLQCVsAwYAAAAAAAAAdkYADGxM2fp7GRG/mCoAFbINGAAAAAAAAADYCQEwsBFtyidl6282UQAqZxswAAAAAAAAALBVAmDgw9qUh62/v5okbM2wVfR+C//yIdw/cGywFbYBAwAAAAAAAABbIwAG3s3WX3iVx4hYbQF9WPtzlKj3ae2fH8awMbT8bh+u/dVhiYVX1v/344g42v2zhMkYtgGfN3335MgAAAAAAAAAgE0RAAPv0qZ8ERG/mx4V60q8ux71LsvPUYS8u/YiHD4rP1d/JxSmZsM24EXTd7feBQAAAAAAAADAJgiAgTdpUz4uW39PTY6ZW23uXW3p/fOnTZ7v16Z8uBYFr/8UCFOD7yUEdg0BAAAAAAAAAD5EAAy8WpvyeYl/D0yNmXguYe8q7l3Wur13LNa2CJ+VKPi4BMKuO8zFY4mAl04UAAAAAAAAAHgvATDwj8rGzquI+GJaTNR66Lva6muT74SsbQ4+WYuCbSJnyn5r+u7SCQIAAAAAAAAA7yEABn6qbOO8dWt+JuRxLfZdCn3nrU35eC0MXj1cr5iKLiLObR0HAAAAAAAAAN5KAAz8rTbli4j43YQYsccXoa9b6rO+LfhMFMwEDBvKL5q+u3ZYAAAAAAAAAMBrCYCBvyjx3K3b6zNCd6vYd/hpsy+vtbYpeBUFu74xNjclBHZdAwAAAAAAAAD+kQAY+C9tymcl/j0wGfZsfbvvEPveOxA2qVzvVlHwmeseI9BFxML1DgAAAAAAAAD4JwJg4E9typcR8auJsCePq9i3BL8PDoJdalNej4EFwezLc9kEfO0EAAAAAAAAAIC/IwAGhujtsGz9dUt8dum5vO8Ev4ySIJg9uykh8JODAAAAAAAAAABeEgBD5cot8G+FbezI3Sr6dYt7pqZcL4fHeURkB8gOdBGxcL0EAAAAAAAAAF4SAEPF2pQvI+JX7wG26HEt+L01aOaibE5fxcDDzyOHy5Y8l03A1wYMAAAAAAAAAKwIgKFCJVwbQqLPzp8tWG35vW367sGAqUGb8kmJgW0HZltumr5bmC4AAAAAAAAAEAJgqE+J1G5tq2SDhu2Uy7Xo98lwqVmb8vHadmBftGCTuuF95csVAAAAAAAAAIAAGCrSpjxsDryKiAPnzgc9rwW/t4YJP1Y2rp+vBcGuv3zUc4mAlyYJAAAAAAAAAPUSAEMl2pSvI+KL8+YDRL/wQW3K5yUEFgPzUf9q+u7KFAEAAAAAAACgTgJgmLmyfXLYEpidNe8g+oUtEQOzAd8jYtH03ZNhAgAAAAAAAEBdBMAwY23KJyX+FZbxFqJf2KHyRY1VCPzZ7HmjbnjvNH33YHAAAAAAAAAAUA8BMMxUm/IiIv5wvrzB97Xw1zZJ2IO1GPjC5nbe4LlEwEtDAwAAAAAAAIA6CIBhhtqUryLiF2fLKzxGxFWJfm2PhBFpUz6OiEV5HDkbXuFfTd9dGRQAAAAAAAAAzJ8AGGakbI4cNrieOld+4rm8T66avrs3KBi/NuWzEgJ/cVz8g5um7xaGBAAAAAAAAADzJgCGmWhTPomIa7eM5yfuhvdI03fXhgTTVL7ocR4RF673/EQXEWdN3z0ZEgAAAAAAAADMkwAYZqBshhw2uh44T154LmH4sO33wXBgPsoXPy5KEOz6z0uPw3vDpncAAAAAAAAAmCcBMExcm/Jwm+8/nCMv2PYLlVjbCnwZEUfOnTXDl0AWTd/dGgoAAAAAAAAAzIsAGCasTXmIO784Q4rnsgn6ysZHqFPZCL/w2cALX30hBAAAAAAAAADmRQAME1S2PQ4hz2fnR7nN+1XZ+PtkIECb8nEJgS8i4qD6gTC4afpuYRIAAAAAAAAAMA8CYJiYEv8uIyI7u+rdlW2/bu0O/K025VUI7HOD70MY7ssiAAAAAAAAADB9AmCYkDblkxL/2uZYt5sS/t7XPgjg9dqUz0oIbHt83bqIOBMBAwAAAAAAAMC0CYBhIkq4dSv+rdbzEP1GxHXTdw+1DwN4vzbl44i4jIgvxlit5xIB+yIJAAAAAAAAAEyUABgmoNy+/Q9nVaXHIfotG39tawQ2pk35sGwEvvDlkiqJgAEAAAAAAABgwgTAMHJtykOY9btzqs4Q/l42fXdd+yCA7VoLgYcvmxwZd3W++qwBAAAAAAAAgOkRAMOItSlfu0V7dYS/wN6UjfOXQuDqiIABAAAAAAAAYGIEwDBS4t/q3JXwd1n7IID9EwJX6abpu0XtQwAAAAAAAACAqRAAw8iUW7EPEWh2NlUQ/gKjJQSujggYAAAAAAAAACZCAAwjIv6tivAXmAwhcFW+R8Si6bun2gcBAAAAAAAAAGMmAIaRaFM+iYhr8e/sdRFxIfwFpkgIXI3hs+pMBAwAAAAAAAAA4yUAhhEo8e8QhB44j9l6LBt/r2sfBDB9QuAqiIABAAAAAAAAYMQEwLBn4t/ZE/4Cs9SmfDhsNC8Pn2HzNETAi6bv7msfBAAAAAAAAACMjQAY9kj8O2vPEXHV9N1l7YMA5k0IPHvPZROwCBgAAAAAAAAARkQADHtSbp9+JZaapd9K/Ou26UA12pSPh43nEfHFqc+OCBgAAAAAAAAARkYADHtQ4t8/zH52bob4rem7h9oHAdSrbLcfvuBy6m0wKyJgAAAAAAAAABgRATDsmPh3lu5K+LusfRAAK23KZxFxHRFHhjIbImAAAAAAAAAAGAkBMOyQ+Hd2HiPioum729oHAfB32pQvhi9JRMSBIc3CEAGf+9ILAAAAAAAAAOyXABh2RPw7K0P8dNX03WXtgwB4jTblwxIB/2Jgs/G16bvr2ocAAAAAAAAAAPsiAIYdEP/Oys0QsTV991D7IADeqk35OCKGaPTU8GZBBAwAAAAAAAAAeyIAhi0T/85GFxEXbnkO8HFtyufDJvWIODLOyRMBAwAAAAAAAMAeCIBhi8S/s/BcNv5e1T4IgE1qUz4cvlgREb8a7OSJgAEAAAAAAABgxwTAsCXi31n4HhGLpu+eah8EwLa0KR9HxBCPnhrypImAAQAAAAAAAGCHBMCwBeLfyXss4e+y9kEA7Eqb8nkJgQ8MfbJEwAAAAAAAAACwIwJg2DDx7+T91vTdZe1DANiHNuXDiBiuwb84gMkSAQMAAAAAAADADgiAYYPEv5N2FxEXTd/d1z4IgH1rUz6LiKuIyA5jkkTAAAAAAAAAALBlAmDYEPHvZD0P2yabvruqfRDsX5vycUQcv3giP/q7TXooj3X3Td89eUuwb23KwzbgXx3EJImAAQAAAAAAAGCLBMCwAeLfyfpetv6+jB9hI9qUTyLisDxOyr9zPeg9nMiG0y4iVkHw/Q/+/GR7NttSfo+ubQOepP/l2gAAAAAAAAAA2yEAhg8S/07SsPV30fTdbe2D4P3alFdR749+1hwq3pWfqzj4vgTCyz0/LyauTfli2NgeEQfOchJumr5b1D4EAAAAAAAAANgWATB8gPh3kr6X+Pdphq+NLWhTPlvb2rsKfE/N+t3u1sJgcTBv0qZ8XLYB+x0cN/EvAAAAAAAAAGyZABjeSfw7Obb+8lMvQt/Vn49MbWceI+IhIpbl533Td/eVvHbeyDbgURP/AgAAAAAAAMAOCIDhndqU7yu/zf+U2PrLn9qUD8sm37Py89jv8qh1a9uC720LZqVsA771+zsq4l8AAAAAAAAA2BEBMLxTiQiXwqNRG7b+XjZ9d1X7IGpWNvuerEW/tvpO33oUvLQpuG5tysMm4F9rn8MIiH8BAAAAAAAAYIcEwPABIuBRuytbfx9qH0RNyu/k2dp239PaZ1KRu3I9XkXBNn5XpE15+H2/9nm8N+JfAAAAAAAAANgxATB8kAh4lH5r+u6y9iHUoE35eC34td2XdV25Ni8FwXUon8fDtf+X2mexY+JfAAAAAAAAANgDATBsgAh4NB4j4rzpu/vaBzFXaxt+zwW/vJEguBJtysO14TYiDmqfxQ6IfwEAAAAAAABgTwTAsCEi4L27iYgLUd/8lJhvFfz6/WJT7so1+9aXBuanfCZfR8Tn2mexReJfAAAAAAAAANgjATBskAh4L54jYtH03W2Fr32W2pSPX2z5tcWTbXsuG2NXQbAvEsxEm/JFRPxe+xy2QPwLAAAAAAAAAHsmAIYNEwHv1HBL//Om7x4qes2z1KZ8UoLfc787jMBdCYJvXV+mr1xfrl1bNkb8CwAAAAAAAAAjIACGLRAB78S3pu8uKnids9WmfLYW/R7VPg9GqyvX8+um7+4d0zSVz+WriPhS+yw+SPwLAAAAAAAAACMhAIYtEQFvzXCr/kXTd7czfX2z1qZ8vhb9HtQ+DybnsWwGFgNPVJvyooTArj9vJ/4FAAAAAAAAgBERAMMWiYA3btjEee6W/NNSNv0uRL/MjBh4otqUT4Zz89n8JuJfAAAAAAAAABgZATBsmQh4Y741fXcxk9cyeyWwW0W/R7XPg9l7LEHptS8oTEP5bB7O7HPts3gF8S8AAAAAAAAAjJAAGHZABPwhz0NI2vTd7YRfQxXalI9L8LvwXqdiw6byq2E7cNN3T94I49amPHyx5Pfa5/AT4l8AAAAAAAAAGCkBMOyICPhduhL/ur3+iLUprzb92qQJ/+2mhMC+wDBiZWP58Pl8UPssXhD/AgAAAAAAAMCICYBhh0TAb/K9xL82aI5QCeYW5SGag597jIjr4dH03YNZjY/P578Q/wIAAAAAAADAyAmAYcdERq/yr6bvribwPKtS3rvDpt8L7194t7sSAl8b4fi0KQ+fPb9UPgbxLwAAAAAAAABMgAAY9kAE/Leeh8C06bvlSJ9fldqUj0v0a9svbI6twCPVpjxc6/6o9OWLfwEAAAAAAABgIgTAsCci4L/oSvwrhBuJNuXVtt/T2mcBW3ZTQmBffhiJNuWT8hld05cexL8AAAAAAAAAMCECYNgjEfCfvg/bZZu+exrJ86lWeU8uSvh7VPs8YMeGrcCXTd9dG/z+VfYZLf4FAAAAAAAAgIkRAMOeiYDjW9N3FyN4HlVrUz4ewsNhC3NlGy9hjJ4j4mp4+GLE/rUpD0H2lxm/RPEvAAAAAAAAAEyQABhGoOII+KtNl/vVpnxWtv1+rnkOMGI3ZSvwg0Panzbl4Tr5+wxfmvgXAAAAAAAAACZKAAwjUVkEPGy3PGv67n4Ez6VKbcrnJfw9rX0WMBHfy0bgpQPbjzblRdnMPJct6eJfAAAAAAAAAJgwATCMSCURcBcR57ZZ7kcJ2C4j4qjG1w8zcFc2AguB96BN+aR8Tk89Ahb/AgAAAAAAAMDECYBhZGYeAd+V+PdpBM+lKsJfmJ3henrd9N21o92tGXxOi38BAAAAAAAAYAYEwDBCM42ABUd7IPyF2XssG4GFwDtUPqeHmX+e2FP3WQwAAAAAAAAAMyEAhpGaWQT8W9N3lyN4HtUQ/kJ1hMB70KY8zPvLRJ6u+BcAAAAAAAAAZkQADCM2kwj4qyBtd4S/UL0hBF40fbesfRC70qZ8ERG/j/xpdhFx1vTd0wieCwAAAAAAAACwAQJgGLkJR8DPEXEuQtsN4S/wwl3ZCOwavAPlGvzHSJ+e+BcAAAAAAAAAZkgADBMwwQj4ucRG9yN4LrPWpnwWEVcT3xINbI8QeEfalM8jYth4fzCipyX+BQAAAAAAAICZEgDDREwoAu7K7efFv1vUpnxSwt/T2b5IYJNuSgj8YKrbU67Ny5FEwOJfAAAAAAAAAJgxATBMyAQiYLHRlrUpHw8RX0R8mfULBbblWwmBXae3pETAtxFxtMen4fMYAAAAAAAAAGZOAAwTUyLg2xFufhUbbVE594uI+HW2LxLYlecSAV+Z+Hbs+Qs7Po8BAAAAAAAAoAICYJioNuXrEW2BHW4tfyE22o425UVEXI3klvLAfDxGxKLpu6Uz3bw9RcDiXwAAAAAAAACohAAYJmwkEfBN03eLSQ9ypNqUz0r4u48NkkA97koI/ODMN2vHEbD4FwAAAAAAAAAqIgCGidtzBCz+3YISjF2NaMMzUIffhmuPgHSzdnRNF/8CAAAAAAAAQGUEwDADe4qAxb9b0KZ8ERGXEXEwuxcHTMFzRFw0fXfttDZri5/V4l8AAAAAAAAAqJAAGGZixxHwt6bvLrx3NqdN+axsiNzFbeIB/sldRCyavnswqc3Zwme1+BcAAAAAAAAAKiUAhhnZUQT81WbIzdnRreEB3uu34RolMN2cDX5Wi38BAAAAAAAAoGICYJiZLUfA4t8NalNelPj3YDYvCpijx7INeOl0N2MDn9XiXwAAAAAAAAConAAYZmhLEbD4d0PalI8jYpjl6SxeEFCLm4i4EJ1uxgc+q8W/AAAAAAAAAEB8MgKYn6bvFiXU2hTx74a0KV9ExL34F5igIVZ9aFM+d3gf987PavEvAAAAAAAAAPAfNgDDjG1oE7D4dwPalE/K1t88+RcDEPE9IhZC1I97w2e1+BcAAAAAAAAA+JMNwDBjG9gELP7dgDbly4j4t/gXmJHPtgFvxis/q8W/AAAAAAAAAMB/sQEYKvDOTcDi3w+y9ReohG3AG/CTz2rxLwAAAAAAAADwFzYAQwXesQlY/PtBbcoXtv4ClbANeAPKZ/W3F/8m8S8AAAAAAAAA8EM2AENFXrkJWPz7AW3Kx2Xr7+lkXwTA+9kG/EFtykMI/If4FwAAAAAAAAD4GQEwVOYfImDx7weUaOsqIg4m+yIAPu6xRMBLs3yfsk15Kf4FAAAAAAAAAP6OABgq9DcR8E25/Thv1KZ8WLb+fjY7gD99a/ruwjgAAAAAAAAAADZPAAyVehEBi3/fqU35rMS/R5N8AQDb1ZVtwPfmDAAAAAAAAACwOQJgqFiJgEP8+z5typcR8esUnzvADj1HxEXTd9eGDgAAAAAAAACwGQJggDdqUz6MiNuIODU7gFe7KSHwk5EBAAAAAAAAAHyMABjgDdqUz0r8e2BuAG/WRcSi6bt7owMAAAAAAAAAeL9PZgfwOm3KlxHxf8S/AO+WI2LZprwwQgAAAAAAAACA97MBGOAftCkflq2/p2YFsDE3EXHR9N2TkQIAAAAAAAAAvI0AGOAn2pRPhm2Vtv4CbEUXEYum7+6NFwAAAAAAAADg9T6ZFcCPtSlfRMS/xb8AW5OHL1m0KZ8bMQAAAAAAAADA69kADPBCm/JhRFxFxBezAdiZ35q+uzRuAAAAAAAAAIB/JgAGWNOmfBwRt2UrJQC79T0iFk3fPZk7AAAAAAAAAMDfEwADFG3KJ8Ot6CPiwEwA9qYrEfC9IwAAAAAAAAAA+LFP5gLwn/h3ERH/Fv8C7N2wgX3ZpnzuKAAAAAAAAAAAfkwADFSvTfk6Iv6ofQ4AIzJ8GeN/tylfOBQAAAAAAAAAgL9Kfd8bC1ClNuXDiLiNiFPvAIDRumn6buF4AAAAAAAAAAD+PwEwUKU25eMS/2bvAIDRu4uI86bvnhwVAAAAAAAAAIAAGKhQm/JJRCzLLeYBmIauRMAPzgsAAAAAAAAAqN2n2gcA1KVNeSH+BZikYWP7ffkSBwAAAAAAAABA1QTAQDVK/PuH+Bdgsobr97JczwEAAAAAAAAAqpX6vnf6wOy1KV9HxBcnzQg9RsRDeVr3EfFU/vxU/nndQ9N3Dx99CW3KxxFx/OKvz9b+vP6/n4jmGamvTd9dOxwAAAAAAAAAoEYCYGD2xL/s0fNa1Lv+M5q+W07pYNqUD0sMHGux8Orn6Z6eFnxr+u6i+ikAAAAAAAAAANURAAOzVYLFIbLMTpkt68oW3/vy82Fqge9HrQXCq+3BZ+Xn0bRfGRNw0/TdwkEBAAAAAAAAADURAAOzJP5lS1YbfZer4Lfpu3vD/rk25VUMfFIeNgazaTcRcdH03ZPJAgAAAAAAAAA1EAADsyP+ZYPu1oLfIfZ9MNzNaFM+WQuCz/y+sgHDJu4zETAAAAAAAAAAUAMBMDArJSocYs0DJ8sbPZf3zir2XRrgbpVNwavHid9j3kEEDAAAAJ/5GRsAACAASURBVAAAAABUQQAMzIb4lzdaD36XTd/dG+C4lN/pIQY+j4jT2ufBq4mAAQAAAAAAAIDZEwADsyD+5ZXuyvvkVvA7PWVD8HmJgnPt8+Cnhgh44fccAAAAAAAAAJgrATAweeJffmLY8ntbHksbQeejTfl4bTvwmd9/fuC5bAIWAQMAAAAAAAAAsyMABiZN/MsPPJbg91r4V4825fMSA5+7HrBGBAwAAAAAAAAAzJIAGJisEvxdi/0Q/bKufDFgUWLgI8OpnggYAAAAAAAAAJgdATAwSW3KQ9z3h9OrmuiXf1Ri4AubgasnAgYAAAAAAAAAZkUADEyO+LdqzyX6vRLy8VZla/jw+GJ4VRIBAwAAAAAAAACzIQAGJqVs8/y3U6vO9yH8bfruuvZB8HFtyoclBB42A2cjrYoIGAAAAAAAAACYBQEwMBkl/l26jX81HiNiCH6vm757qH0YbEeb8nEJgReuLdUQAQMAAAAAAAAAkycABiZB/FuV7yX6va19EOxWm/KihMCnRj97ImAAAAAAAAAAYNIEwMDoiX+r8Fy2/V7Z9su+lWvOsBX43HVn1kTAAAAAAAAAAMBkCYCBURP/zt5jRFxGxG3Td0+1D4NxaVM+LCHwsBX4yPHMkggYAAAAAAAAAJgkATAwWuLfWbsbwt+m75a1D4JpaFNelBg4O7JZEQADAAAAAAAAAJMkAAZGSfw7WzcRcSW2Y6ralM/K1upThzh54l8AAAAAAAAAYLIEwMDoiH9n6aZs/H2ofRDMQwmBh63AXxzpJIl/AQAAAAAAAIBJEwADo1Nutf+Hk5kF4S+z1qZ8XDYCC4GnQ/wLAAAAAAAAAEyeABgYJRHw5Al/qYoQeDLEvwAAAAAAAADALAiAgdESAU+S8JeqlRD4KiI+1z6LERL/AgAAAAAAAACzIQAGRk0EPBnCX1jTpnxWNgKfmssoiH8BAAAAAAAAgFkRAAOjJwIetbsS/i5rHwT8SAmBh43A2YD2RvwLAAAAAAAAAMyOABiYBBHw6DxGxEL4C69TrmHDRuAjI9sp8S8AAAAAAAAAMEsCYGAyRMCj8Fw2/l7VPgh4qzblw4i4KI8DA9w68S8AAAAAAAAAMFsCYGBSRMB79a3Ev08VzwA+rE35OCKGiP6zaW6N+BcAAAAAAAAAmDUBMDA5IuCduxs2lgrpYLPalM9KCJyNdqPEvwAAAAAAAADA7AmAgUkSAe/Ecwl/ryt4rbA3bcqXw+9aRBw4hQ8T/wIAAAAAAAAAVRAAA5MlAt6qbxFx2fTd04xfI4xGm/Jx2Qb82am8m/gXAAAAAAAAAKiGABiYNBHwxnVl6+9yZq8LJqFN+byEwEdO7E3EvwAAAAAAAABAVQTAwOSJgDfmt6bvLmfyWmCy2pQPhw3cEfGLU3wV8S8AAAAAAAAAUB0BMDALIuAPuYuIRdN3DxN+DTA7bcpnEXFtG/BPiX8BAAAAAAAAgCoJgIHZEAG/2RDOXTZ9dzWx5w3VsA34p8S/AAAAAAAAAEC1BMDArIiAX60rW3+FczABtgH/hfgXAAAAAAAAAKiaABiYHRHwP/qt6bvLkT9H4AXbgP8k/gUAAAAAAAAAqicABmZJBPxDjxFxLpqDaWtTPi/bgA8qPErxLwAAAAAAAABQvcEnUwDmqOm7IY776nD/dBMRJ6I5mL6m724j4jgi7io7TvEvAAAAAAAAAEBhAzAwazYB/yeYW5RgEJiZNuWLiPi9gnMV/wIAAAAAAAAArBEAA7NXcQTcRcR503cPI3guwJa0KZ9ExBD5H810xuJfAAAAAAAAAIAXBMBAFSqMgL81fXcxgucB7ECb8mFEXEfE55nNW/wLAAAAAAAAAPADAmCgGpVEwEMst2j67nYEzwXYsTblIfz/fSZzF/8CAAAAAAAAAPwNATBQlZlHwF2Jf8VyULE25ZOIWEbEwYSnIP4FAAAAAAAAAPiJT4YD1KTpu+EW+V9n+JJvxHJA/M91brgOHJcvBUyR+BcAAAAAAAAA4B/YAAxUaWabgP/V9N3VCJ4HMDJtysOXHr5M6FzEvwAAAAAAAAAAryAABqo1gwh4COXOm75bjuC5ACM1oWud+BcAAAAAAAAA4JUEwEDVJhwBD7f2XwjlgNdoUz6JiOHLAgcjHZj4FwAAAAAAAADgDT4ZFlCzpu+G2+N/ndgI7oRywFuU68VJ+fLA2Ih/AQAAAAAAAADeyAZggGltAr5p+m4xgucBTFCb8mFE3EbE6UievfgXAAAAAAAAAOAdBMAAxQQi4H81fXc1gucBTFyb8rD9/MueX4X4FwAAAAAAAADgnT4ZHMD/aPpuCOK+jnQcX8W/wKaUTeL/2vNAF+JfAAAAAAAAAID3sQEY4IWRbQK2IRPYmj1e776WL10AAAAAAAAAAPAOAmCAHxhJBCz+BbauTfksIm4j4mBH0xb/AgAAAAAAAAB80CcDBPirEqd93eNouog4Ef8C29b03XL4skH50sG2iX8BAAAAAAAAADbABmCAn9jTJuCubP59cjbArrQpn0TEcoubgMW/AAAAAAAAAAAbYgMwwE/sYROw+BfYi7Jx/KRchzZN/AsAAAAAAAAAsEE2AAO8QpvycHv82y1uxgzxLzAGbcqHZRNw3tDTEf8CAAAAAAAAAGyYABjglbZ8e/ybpu8WzgIYgw1GwOJfAAAAAAAAAIAt+GSoAK9Tbo8/bAJ+3vDIxL/AqJRN5GdlM/l7iX8BAAAAAAAAALZEAAzwBluIgMW/wCh9MAIW/wIAAAAAAAAAbJEAGOCNNhgBi3+BUXtnBCz+BQAAAAAAAADYMgEwwDtsIAIW/wKT8MYIWPwLAAAAAAAAALADAmCAd/pABCz+BSbllRGw+BcAAAAAAAAAYEcEwAAf8I4IWPwLTNI/RMDiXwAAAAAAAACAHRIAA3zQGyLgTvwLTNlaBHyz9jLEvwAAAAAAAAAAO5b6vjdzgA1oUz6JiGVEHPzg3zZszDwr8RzA5LUpD9HvUvwLAAAAAAAAALB7AmCADfqbCFj8CwAAAAAAAAAAwMZ8MkqAzWn67r7cHv+5/EvFvwAAAAAAAAAAAGyUABhgw9Yi4DvxLwAAAAAAAAAAAJuW+r43VAAAAAAAAAAAAACYCBuAAQAAAAAAAAAAAGBCBMAAAAAAAAAAAAAAMCECYAAAAAAAAAAAAACYEAEwAAAAAAAAAAAAAEyIABgAAAAAAAAAAAAAJkQADAAAAAAAAAAAAAATIgAGAAAAAAAAAAAAgAkRAAMAAAAAAAAAAADAhAiAAQAAAAAAAAAAAGBCBMAAAAAAAAAAAAAAMCECYAAAAAAAAAAAAACYEAEwAAAAAAAAAAAAAEyIABgAAAAAAAAAAAAAJkQADAAAAAAAAAAAAAATIgAGAAAAAAAAAAAAgAkRAAMAAAAAAAAAAADAhAiAAQAAAAAAAAAAAGBCBMAAAAAAAAAAAAAAMCECYAAAAAAAAAAA4P+xdzerkWXp3tjXLspfBxupB37BI+mAJzHa6pE9CJAOcQGpxheQqisI9Q04Vb6BVgw8TuUVlPICgpZgTzxqbWMIsActTYx5MRwlx+c1Prywzcpeqo5UKTMlxcf+WL8fiMyq7gLFsyJi773Wfz0LAOgRAWAAAAAAAAAAAAAA6JEfDRYAAAAAAAAAALmpivIghLC79LIf//OD/fTzXPchhJuv/H+f+t9uxk197w0IALxE0TSNggEAAAAAAAAA0HtVUe6mIG90lP5cDvYedvw1floKCN+mn5D+XQwJ346b+vYb/z0AkAkBYAAAAAAAAAAAeqMqyoeOvA/B3qP0Z5nRKH5aCgUv/ykgDACZEAAGAAAAAAAAAKBzloK+R+nP/R508O2KOnUPvlkKBt/041cHAJ5DABgAAAAAAAAAgFalsO9B+jlKf+4YlbVbDgZfxT/HTX0/sNcIAFkQAAYAAAAAAAAAYKuqojxaCvoeCfu26m6pU7BQMAD0hAAwAAAAAAAAAAAbtRT4jT+Hqt159VIg+Grc1Le5FwQAukYAGAAAAAAAAACAtaqKMnb2PRb4HYy7hzCwQDAAdIMAMAAAAAAAAAAAK6mKcj+FfR9CvzsqOmjLgeDLcVPf514QANg2AWAAAAAAAAAAAF4sdfmNYd+TEEKpglmrYxA4hYFvci8GAGyDADAAAAAAAAAAAM+SQr8nqdPvnqrxhE8PYeDYIVh3YADYjBcFgEeT2W4I4SD97BqTJ8WjDW4X8+ltB3834BuWvuOO1Omr4nfczWI+9YAGzzSazB7unfbV7Fe+S55pNJkdufeGJ8Xvj8cdJDyHwYCkhUT3UPC0q0f/9l5nJfg615TvivfQN75HNq8qSvPP33eV3o/mjAA6SOiXFX1c6g7sWk9rqqK09gZ01X16Jn48//tNzwoAjyazh5u4N4b/2eLRBhfxR7gFuiuFfk8cSfNi8TvuPD6g+Y6D3xpNZsfpeyU+QO4o0Ve5X3rC0vvHvTes5nrpv354UL5NP/eL+VTAATomLSSepjko91DwenWaLA5L18BfN8+8dAIZ+qgqyv2la4pwyvM8dGi78D2xPin0a/755X6dfxYQAmhXuq96uJa5r2JdhIHZqhT6PTHvCPTIxzRHc/m9X/mbAeAUPjh3I7eSOGl2vphPz3r8GmCQRpNZXAQ4c4O3kvgdd7aYT897/Bpgbdw7vdqnVLfznIPAqdvvuQVB2LqHoPDVUjhKN2HYorSYeG7zC2zdk9fAcVO7BtJb6ZoS5/veGsWVxO+HU12BV1MVpfnn1X2efx43tflngC1KG1iO04Yq89Vs2scUBL5QadYtBX/jPfmh4gI9dRc3MHxrs/aTAeDUEfPCwstaxd3KJ7pMQfvSd9yVB9a1iosCxzp4kiv3Tmtzl75LsrtfGk1mcSFr2oFfBfjS9VLX4M9H0brfgfWqivIkhX8FY6Bb6nT9u1kKBpvXpNOqojxOz+auKevz87ipNTd5oRSauhQyWKvP8886BAJs1lKHTJupaIMTKVirqiitvQFDMhs39elTr+c3AWDBuI2KNyxHQsDQntFkdpC+4ywErF+2wT3y5t5p7eL90uliPs1mp/doMrswoQq98ikFoa4eQlG6BcPrpPDve+WDXrleCgXfCAXTFa4pG/Vh3NQnA359a1UVpfnnzblLIWDXHoA1ShtXTlK3X6cb0hV3acP4pVNqeI2qKK29AUMUmzYcPd4c+0UAWIBlK4SAoSXpO+7Gw+tG1ek7TicGsuDeaaP+sJhPLwf8+j4T/oXBuFsKBV953oPvE9SCQble2hhzpTsj2+aashVf7TLD36UAlfnnzXpysROAl0ubVk7NT9MDH1NX4MGvGbEewr/AwH0cN/Xx8kt8HADW/nw76sV8epDDC4UuGU1mV45d24qPi/n0uAO/B2yc8OZGxU1TB0PuqjmazOLk6p868KsAm/EQhroUCIYvpUXGvygLDNbdw6aYFAjWrYmNqYpyPwUudVvdvD8IXXxbVZTmn7fjN4udADxf2jx14ppFD8Vnzbgud24zEF9jgyiQiZ/HTX328FJ/DQCPJrOjEMKfvQu25ufFfHrWkd8FBm80mbnR264sOneSN/dOW3G9mE+PhvjCUvfoW4vUkI1PD2Hg1CFYEIqsCcdAdu4eroE6BLNurilbFe9p932GnyZosHUC6QAvkLrUn6SOvzrVMwQfUhBY4wV+lb7rrL0BufjHh8YLPyy9YGHU7TpNwQ9gO3zHbdd5Ti+WbHmfb97haDIbakeXcxMQkJX4eX+TAgF/HU1mN/EEntFk5mQYslMV5bGgFmRnL50690sI4Z9jYLMqytPUuRVerSrKI9eUrdpJoSGeZv55u8zLATxDDMNVRXmWAnF/Ev5lQOLpnH9Jz5dOBuDBqbU3ICNfdgAeTWZxsvWv3gFb98fFfGqSAjYshcd+Ueet0wWYwdL9d6sG1wVY91/gkbulzsDunRg8nRqBRx6ugxc6N/FSVVFepk1WbM/duKmF9x9JoRPzz9unCzDAV6TNdmcpJAk5iM+WZ+OmvjDa+aqK8t7aG5CZ38WTmh46ANu13Y6THF80tMCuv3aoO0PmGr49h2mz2pAcm4AAlvzaFXE0md3rDMyQpWP4hH+BZQ/Xwdi56bYqyovU1RW+KV1ThH+3b89n9EnmQduh7gCPxOBvvKdOzd+Ef8lJfLZ8HwOgset1el4gI2lTnrU3IDefn4sfAsAWF9tRpg5wwGaZCGyHxQCGzPt7u4b2Pe79A3zNzkMIajSZ3Y4ms7MBboIgb57NgG/ZSyGFP6cw8HlVlOat+RrPVe1R+99yj9MOdQdIBH/hV3F+9V08hVEQODueU4AcfREA1n2lPSaxYYNSYMJOr3bsCawwRGnzzp7B3aqhPbS7/wOeYy9NVv91NJldjSYz3ecZAtdA4LkedwY+TccYwwPXlPZYWF+SvpvMP7djx7UByJ3gL3yVIHB+PCMCOfr83feDo0Vbp/6wWSYA26X+DJFr9/YN7buk7MDvAPRL3LT7fjSZ3Y8ms3ObrOgx91HAa8Qw8J9iqKEqyst0rCe4prTHveiX1KNd6g9kKYYZY6gxhHAj+AvfJAicD40vgRx9blwXOwC7wLVL/WGzTAAC9J/ALMDf7KRuiLEr8OVoMtN9DYDcvAkh/FIV5X1avDXvky/z6u1xKtKXfA+1y3cBkJ0U/L1NoUZd6OF5vggCqxkAQxE3t/xgNIGBMwHbLqEUAIDNiAGoP48ms5vRZHaixgBk5mHx9qErsPkHoC3mn9ulGziQjXgSRlWUgr+wms/PkvGzVBWlOVUAhuBAABgAAAD6K3ZJfz+azG4FgQHI1OdNMRZwAQAYoqooD6qivIonYejED2sTP0vvq6K8saEUgL4TAAYAAID+20tB4PvRZHY2mswchQtAbh4WcD8f6RqPv/MOAACgr+L9bFWUFyGEv4QQDg0kbESZNpReVUXpZAcAekkAGAAAAIbj4Uh0HYEByNXew7VQEBgAgD6qivI03s+GEN4aQNiKGLL/a1WU554hAegbAWAAAAAYnp3UEVgQGIBc7QgCAwDQJ1VRHlRFeRNC+FO6nwW2a5qeIc2nAtAbAsAAAAAwXHspCHwzmsyOjDMAGRIEBgCg0+I9auw8GkL4SwihNFrQqs+NFaqivIqhfEMBQNcJAAMAAMDwxcWjP48ms8vRZLZvvAHIkCAwAACdUxVl3LB9kzqPAt1xGEP5nh8B6DoBYAAAAMjHm7ioNJrMzow5AJl6CALfONYVAIC2pK6/l3HDdjrBCeimh+dHp6sB0EkCwAAAAJCXz8Gn0WR2O5rMTFwDkKu9dKyrhVwAALaqKsrjeDJF2qgNdF98fvxzVZQXugED0DUCwAAAAJCnzxPXo8nsfDSZmbgGIFdlWsi9rIpy37sAAIBNWer6+0vaoA30y9sY3k8hfgDoBAFgAAAAyNs0TlyPJjMT1wDk7E061vXMuwAAgHVLp07c6PoLvRfD+7/oBgxAVwgAAwAAAJ8nrnUDBiBz8Xr4rirK2xTQAACAlVVFeR5PnUinMQHD8DZtIvXsCECrBIABAACAB7Eb8M1oMjtQEQAyFoMZf9bRCQCAVVRFeVAV5U2abwGG5+HZ8dzYAtAWAWAAAABgWZy4/stoMnMEOgC5ix2dYjfg49wLAQDAy1RFeRJCuAohlEoHgzeNYf8Y+jfUAGybADAAAADwlHejyexqNJnpfAhAznZCCL9URXmpGzAAAN8T7xnjSRIhhPfpXhLIQwz7X6XwPwBsjQAwAAAA8DWHIYSb0WSmewUAuXuTugEf5V4IAACelrp/XqWTJID8xND/+7gJwAZSALZFABgAAAD4lr0Qwl9Gk5nuFQDkLi7m/rkqynOLuQAALEtdP69SF1Agb29TN2BNFQDYOAFgAAAA4Dnejyazc5UCgDC1mAsAwIPY7TPOm6QNYwAhbQa4SpsDAGBjBIABAACA55qOJrPL0WSm6yEAubOYCwCQuXgqRFWUN6nbJ8BjcVPA+7RJAAA2QgAYAAAAeIk3MfAkBAwAf1/MjeEP5QAAyEc6DeI2bQwD+Ja3cbOA50YANkEAGAAAAHipuLh1O5rMHH0OAH/r+HaVQiAAAAxcOgXiL2lDGMBzfJ5P9dwIwLoJAAMAAACvsZM6AZu0BoC/LebGEPCxWgAADFdVlOfxFAhDDLzCTnpuPFE8ANZFABgAAAB4LSFgAPi7eF38pSrKMzUBABiWeHR/VZQXIYSpoQVWEJ8b33tuBGBdBIABAACAVQgBA8CX3sVwSAyJqAsAQP+l+7qrEMJbwwmsybu0qQAAViIADAAAAKxKCBgAvvQ2He0qBAwA0GNVUca5jpsQQmkcgTV7WxXljedGAFYhAAwAAACsgxAwAHwphkRuUmgEAICeSfdxsfPvnrEDNqRMm0f3FRiA1xAABgAAANZFCBgAvrSXFnNdGwEAeqQqypMU/t0xbsCG2TwKwKsJAAMAAADrJAQMAF/aSSHgY3UBAOi+FP59L/wLbNGOzaMAvIYAMAAAALBuDyHgXZUFgM/itfGXFCYBAKCjlsK/ANv2EAL23AjAswkAAwAAAJsgBAwAv/XeYi4AQDdVRXku/Au0bMdzIwAvIQAMAAAAbEoZQrhUXQD4gsVcAICOqYryIoQwNS5AR3huBOBZBIABAACATTocTWYXKgwAX7CYCwDQESn8+9Z4AB3juRGA7xIABgAAADbt7WgyM1kNAF+ymAsA0DLhX6DjPDcC8E0CwAAAAMA2vB9NZgcqDQBfsJgLANAS4V+gJzw3AvBVAsAAAADAtlyNJrNd1QaAL1jMBQDYMuFfoGc8NwLwJAFgAAAAYFt2QgiXqg0Av2ExFwBgS4R/gZ7y3AjAbwgAAwAAANt0OJrMTlUcAH4jLuYeKQsAwOYI/wI9JwQMwBcEgAEAAIBt+9NoMjtQdQD4jcuqKF0jAQA2oCrKM+FfYACEgAH4lQAwAAAA0IaL0WS2q/IA8IWdEMJVVZT7ygIAsD4pLPdOSYGBcIIMAJ8JAAMAAABtKEMIZyoPAL+xkzoB2ygDALAGKfz7Xi2BgXGCDAACwAAAAEBrpqPJTKcKAPituFHmUl0AAFZTFeWx8C8wUA8nyAgBA2RMABgAAABo04XqA8CTDquidJ0EAHilFIpzPwUMmRNkADInAAwAAAC0aW80mZ0ZAQB40tt0ZDUAAC+Qwr9XKRwHMGR7qROwEDBAhgSAAQAAgLa9G01m+0YBAJ703pGuAADPl0JwF8K/QEZKHc8B8iQADAAAAHSBCWoA+DrdnAAAnu8qheEAcvKmKkpzrACZEQAGAAAAuuBwNJkdGQkAeFLsXnepNAAA35bCb8K/QK7eVkV5YvQB8iEADAAAAHSFDhUA8HWHVVGeqQ8AwNPSvdJb5QEy974qSo0WADIhAAwAAAB0xd5oMtOhAgC+7p2FXACA30odL98pDcBnl1VR7isFwPAJAAMAAABdcj6azHaNCAB8VVzIda0EAEiqojyI8wnqAfCrHc+OAHkQAAYAAAC6JE5OnxoRAPiqeK28UB4AgM/h3xhuu0z3SAD8XWlzBMDwCQADAAAAXXOqCzAAfNObqihtmAEA+Fv4d08dAJ701rMjwLAJAAMAAABdowswAHzfWVWU++oEAOSqKsrY2fLQGwDgm/5UFeWREgEMkwAwAAAA0EW6AAPAt8UNMxdqBADkqCrK4xDC1OADPMtlVZTmWgEGSAAYAAAA6KIYajo2MgDwTYeOcwUAclMV5YGNUAAvEudaL5UMYHgEgAEAAICuOjMyAPBdZ1VR7isTAJCD1MHyIoXZAHi+uIHUfCvAwAgAAwAAAF21N5rMdAEGgG/b0QEPAMjIeQihNOAAr/KuKsojpQMYDgFgAAAAoMscaw4A3xc7Odk0AwAMWlWUJyGEt0YZYCUXqZs6AAMgAAwAAAB02eFoMnOsOQB837lFXABgqKqi3E/dfwFYzZ5TZACGYdzUVwLAAAAAQNfpAgwA37fnmgkADNhlCGHHAAOsxZvUVR2AnhMABgAAALrOZDQAPM+71B0PAGAwqqI8CyGURhRgrc4H9Px43YHfAWDb7oIAMAAAANADO6PJ7NhAAcCzOMoVABiMqiiP4iYnI0rH1SmAeP0QxoEe2BnQ8+NNB34HgG37/N33o7IDAAAAPXCSjvsEAL7tMAZlxk19pU4AQJ9VRblrcxMteOgk+nA/HcM19w9/Hzf1/Wt+paooD0IIu+kfH/6+u/R3Xa5pQ3x+PB039XnPqx8/r9MO/B4A2/R5zUwAGAAAAOiDN6PJbHcxn75qkQUAMnOeggQAAH12FkLYM4JswKcU7H34uV0l3Psc46Ze7lD65Ga9pZDwUbqf3xcMZgvOqqK8HDf1bY+LfZU+1zsd+F0AtkUAGAAAAOiVY51/AOBZyqooT8ZN7boJAPRSPNFAN0fWqE4BwasU9O1k0HEpJPxFQDh9Hh5CwUdCjqzZTppzPeprYWN4P4aYQwhvO/DrAGzDh4eNSwLAAAAAQF8IAAPA8525bgIAfVQV5a77GFb0EPiNXU2f7LbbJ+k1/Po6Uqfgo6UfgWBWdVgV5em4qc97XMkzAWAgI7/eK/9g1AEAAICeeDOazHYNFgA8y17sAqxUAEAPxRDXnoHjBeLR/x9DCD+FEH43buqDcVOfDiH8+5TYKTgGNcdNfTxu6jhX9k8hhFkI4a57vy09cpY2YPRS6uz9szcckIHZ8j2OADAAAADQJ8dGCwCe7bzPC7gAQH6qoozdTKeGnmeIod8PIYQ/xBBsCsNePByHnZMYAkqB5/0Qwu+FgXmlnb53Xx839VnqAA4wVHXaLPcrAWAAAACgT46MFgA8W1zAPVUuAKAP0salXofP2IqPS6Hfk3FTXyr736XuwI/DwJ+68vvReW+qoux7A4YjIWBgoOL1/OTxZicBYAAAAKBPdAAGgJc5US8AoCdiN7M9g8UTKCxxrwAAIABJREFUYpjvjyGE36VOv0K/z7AUBo7h+j+k8DR8T69PkknBOCFgYGjid9pRvLY/fl0CwAAAAECf7IwmswMjBgDPtlcVpRAwANBpVVHGZ/2pUeKRDyGEfxo39cG4qc8fd7zj+WJoOoanQwj/qCsw37HX95NklkLAsw78OgCrmn0t/BsEgAEAAIAeOjJoAPAiZ8oFAHTchQEiicHUn1O333jM9ZXCrM+4qW9jV+AQwn4I4acQwt1QXhtr9a4qyv0+lzSGgNN7/R/TZgKAvonfXb9P3fy/uglKABgAAADom2MjBgAvogswANBZVVHGgFZphLJ3lwKp++OmPtPtd7NSOPJi3NQPQeDrIb9eXmUQGzNS6D0+D/8uhPCH1EnzWvgd6Ji79N00S9flh41QT3b9XfajkQQAADJxvZhPdQ3tsdFkthtCOFh6BUdLf+5aKMrKYe4FgJcaN3WhaP2TjkHeXfrFH659+0s/e7nXiWc71VkPAOiaqih3nVaQvRh4iYFf96otSbW/qIryKH0ezb0RHcb3xFC6cKdNBZfph46oirIxFq25Hje1ddMBEAAGAACgFxbzaZygW55s/M3E42gyO0gh4YMUkhIKHqg41ov59Ls7nwH67IkOD08uui0FhY/SNXDfNZAnlENavAUABuM8hLBjOLMk+Nsx6VnhqCrK4/TZtOGUizTHAEBHCQADAAAwGCkQ+mtYKnUNjmGo4/RjQWk4jpbHGiBnS0HhX4OdqZPaw4aYIx2cSE6+FiQHANi21G30rcJn51MMl46bWufnjho39ecuqVVRnqSOwILA+dqrivJ03NTnuRcCoKsEgAEAABis1DX412O9RpPZQxDY4lL/HeReAIBvSUdbXj0KBR8tbYzRIThPb6uijF3WbnMvBADQCQKg+Zmlrr/3uReiD2J35qoo47zqafrRXCFPZ1VRXvjcAnTTD8YFAACAXCzm08vFfBo7V/wuhPBzOmqQfhIABniheJxr7LI1bur4HfqPIYQ/hhBqdczOSe4FAADalzqLOqUiH9chhN+Pm/pUiLBf4nilbs3xOfJj7vXI1E4KgAPQQQLAAAAAZCd2Bl7Mp2eL+XQ/hPCTIHAv6VwJsILYATYe4fkoDOx6mAcBYACgVVVR7ur+m41Pce5t3NRH46a+yb0YfZaeIeNpMv/k2TFL76qi3M+9CABdJAAMAABA1hbz6UXqYPFzWpSgJ0aT2ZGxAljdUhh4Py3mflDWQdurivI49yIAAK2KnST3DMHgxeeK/XFTX+ReiCGJJ8ukudRZ7rXIkI0bAB0kAAwAAED2HjoCp8nr69zr0SO6TgCsWVzMHTf1SeoKbHPMcOkCDAC0InWQdJT8sMXusP8UnyvGTX2fezGGKI7ruKlPdQPOzltdgAG6RwAYAAAAksV8eruYT4/SMeh0nwlngA1JXYHP0netIPDwvElHbwMAbFu8x9xR9cGKXX8PUpdYBk434Cyd514AgK4RAAYAAIBHFvNpnMj8vQ4WnXeUewEANi11dhIEHiZdgAGArUqdI9+q+iDF54Q/6Pqbn0fdgD0vDl/cTGpOFqBDBIABAADgCYv59CZ1sKjVp7N0LgTYkqUg8EHq6kX/CQADANt2puKDdB03DI6b+jL3QuQsdQPeT+8Hhs13OUCH/GgwANiU/2H//zz56//87+wAZFD+p/9usvs//i//vUEFyMRiPr0fTWbxfiZOYJfGvXOMCcCWjZv6NgZHq6K8SEd/+i7urzJ24UtjCgCwUaljpO6/w/Nz2igIIXV/PqqKMr4n3qnIYB3G7/QU+gagZQLAAGzMf/Wf/H97IYQ9FWZI/uHH/9d4AmRGCLjbRpPZ/mI+FVwC2LK00HdgYbf3jlOQGwBg04REh+VT3Bio6y9PiaHwqijjM2N8f+wo0iDF73SNwAA64AeDAAAAAN8WQ8BpQrNWqs7Zz70AAG1K3b5+7xrZWye5FwAA2LzU/fdQqQcj3vsfCP/yLQ+bRj0rDlbsAnyQexEAukAAGAAAAJ4hhYBPUocTumPXWAC0a9zUN2mjzAdD0TtlVZQ20wAAm6b773B8jPf+46Z2GhPfld4nnhWH6zT3AgB0gQAwAAAAPNNiPr0xsdk5Ok0AdMC4qe/HTR03yvxkPHrnOPcCAACbo/vvoMzGTX0c7/1zLwTPt/SsOFO2wXlrQylA+wSAAQAA4AUW8+lF6nYCADwybup4nfy9jvm9IgAMAGyS7r/D8NO4qW2K59XS+8eG0eHxHQ/QMgFgAAAAeLkTwabO2M29AABdM27qm9ShvTY4vXBYFaXrKQCwdrr/DkKc//pD2ugHK0nvoz+YVx2Ut54nAdolAAwAAAAvtJhP73U36IyD3AsA0EXjpr4NIRwJAffGUe4FAAA2wtxJv8WQ5tG4qS9zLwTrk95PR0LAg6I7OECLBIABAADgFRbz6XkI4U7tAOBp46a+FwLujePcCwAArFdVlPu6//baQ/j3JvdCsH7pfSUEPBynugADtEcAGAAAAF5PJxsA+AYh4N7QARgAWDdzJv0l/MvGCQEPyo5NpQDtEQAGAACAV1rMpxcmqQHg24SAe2EvdekDAFhZuq94q5K9JPzL1ggBD4pNHwAtEQAGAACA1VyoX6uElQB6YCkEfGe8OkvHJgBgXU5VspeEf9k6IeDBiJtKnSwD0AIBYAAAAFjNufq1ai/j1w7QKykEfGxht7Ms1gIAK6uKcjeEcKKSvSP8S2uEgAfD5g+AFggAAwAAwAoW8+mtI80B4HnSwq5ASDcd5F4AAGAt4r3ejlL2ivAvrRMCHoQ3VVE6rQ1gywSAAQAAYHWXaggAzzNu6njd/Fm5OmfPYi0AsAY6QPaP8C+dkN6Hx0aj12z4BdgyAWAAAABY3ZUaAsDzjZv6LIRwrWSdc5R7AQCA16uKMgb39pSwV34S/qVLxk0d51l/Mii9JQAMsGUCwAAAALCixXwqAAwAL3fieNfOOci9AADASnT/7Zc/jpv6Ivci0D3pfflHQ9NLe2kzCABbIgAMAAAA66GLIQC8wLipb0MIZ2rWKQLAAMCrVEW5H0I4VL3e+DBu6vPci0B3pffnB0PUS7oAA2yRADAAAACsh+MSAeCF0qKuTTTdIbQDALyW7r/9cT1uagE9Oi+9T2sj1Ttv0qYQALZAABgAAADW414dWyE0BtB/wgcdUhWlLsAAwGu4p+uHuxCC4/npk6P0vqVffM8AbIkAMAAAAKzHlToCwMuNm/o2hDBTus4QAAYAXqQqyhj+3VG1zvsUQ3njpraJnd5I79fj9P6lP3SFB9gSAWAAAAAAANp2ZkG3MxzVCgC8lO6//XA6buqb3ItA/6T3rUBpv+w5XQZgOwSAAQAAYD1u1REAXid1dTpXvk44yr0AAMDzVUUZNw8dKlnnfRg39UXuRaC/0vv3gyHsFZtDALZAABgAAADWYDGfCgC3w7GVAMNxrgtwJ+gADAC8hK6c3VcbJwbiNL2f6QcBYIAtEAAGAAAA+szRlQADoQtwZ+zlXgAA4EWOlavT4ga7k3SvDb2W3scnNo72xk5VlK4RABsmAAwAAAAAQFc4lrgDqqI8yr0GAMD3pWCXzUPddjZuapunGYz0fj4zor0hAAywYQLAAAAAQJ/dGj2A4Rg3dfxe/2hIW7eb+esHAJ5HsKvbrsdN7YQNBie9r6+NbC+4TgBsmAAwAAAArMFoMhOUaYcAMMDw6ALcvoPcCwAAfFtVlLuCXZ32KYRwknsRGLST9D6n23ZSt3gANkQAGAAAANZDUKYdAsAAAzNu6ksLua2zsQkA+J4Y6NpRpc46TadrwCCl9/eZ0e0FAWCADRIABgAAAHprMZ9azAIYJl2A22VjEwDwPQJd3XU9bmr30wzeuKnP4/vdSHee6wXABgkAAwAAwHocqePW3WX2egFycmm0AQC6qSrKeFrAG8PTSfEkjZPci0BWTpwg03k7VVEKAQNsiAAwAAAArMe+Om6d7r8AAzVu6iuLuK06zPi1AwDfJ8jVXefjpjZfQjbS+/3ciHee5hkAGyIADAAAAOthEnP7rnJ7wQCZ8T0PANBNAsDddDdu6rPci0B+0vu+NvSd5roBsCECwAAAALCi0WQWj77cU8et09EGYNgEgFuUjvYGAPhCukd4oyqddJJ7Acjaae4F6Li9qigPci8CwCYIAAMAAMDqdDBohwAwwLAJALfL4iwA8BRzIN30cdzU7p/JVnr/f/QO6DQn6AFsgAAwAAAArM7kZQsW86mFLYABGzf1jfEFAOgcAeBu0v0UfA66zvUDYAMEgAEAAGAFo8ls1+RlK+oMXzNAjq6NOgBAp7wxHJ0zGze1U5LIXvoc/Jx7HTrssCrK3dyLALBuAsAAAACwmhj+3VHDrdP9FyAPggztOcj1hQMAT6uK0gbo7vkUQjjLvQiw5Dx9LugmJ+kBrJkAMAAAAKzmRP1a4Vh4gDwIALdHZyYA4DEB4O45Hzf1fe5FgAfp83CuIJ3lOgKwZgLAAAAA8EqjySx2xjtUv1boAAyQBxs+AAC6Q+fGbvkk6Ai/NW7q2BX7Tmk6yXUEYM0EgAEAAOD1TtWuFXeL+VRHSIA86GYGANABVVHGTdB7xqJTdP+FrztTm07aq4pyP/ciAKyTADAAAAC8wmgyixOVb9WuFbr/AuTDhg8AgG7QtbFbdP+Fbxg39YUuwJ3legKwRgLAAAAA8DoX6taay0xfN0B2xk0tAAwA0A3HxqFTdP+F79MFuJsEgAHWSAAYAAAAXmg0mcVJykN1a40OwAAAALAlVVHumgfpFN1/4RlSF+BPatU5AsAAayQADAAAAC8wmsx2df9t1cfFfKrDDQAAAGyPsFa3XOj+C88mLN89e1VR7udeBIB1EQAGAACAl4lHx+2pWWt0/wUAAIDtEgDuFoFGeL5zXYA7yXUFYE0EgAEAAOCZRpPZcQhhql6tusz4tQMAAEAbBLW648O4qW9zLwI8V+qWbT6xe1xXANZEABgAAACeYTSZxWPJLtSqVdeL+dQiFwAAAGxJVZS7IYRSvTvD3BS83Jmadc5B7gUAWBcBYAAAAPiO0WS2mzpF7KhVqyxyAQAAwHbp0tgd9bipr3IvArxU6pr9UeE6pUwbTABYkQAwAAAAfN+lbjed4Lg+AAAA2C4B4O44z70AsAKNBbpHF2CANRAABgAAgG8YTWZxcvhQjVr3YTGf3mdeA4DsVEW5b9QBAFolANwNn2yMhtcbN3X8/NwpYae4vgCsgQAwAAAAfEUK/75Vn07QpQMgTwLAAAAtScezOxGpGy7HTW1jNKzG/GK3CAADrMGPiggAAABfGk1mu6mris6/3XC3mE+vci8CAAAAbJnj2btDcBFWFz9H79SxM1xjANZAB2AAAABYMprMYqfBK+HfTjnLvQAAGdMBGACgPbozdsPduKltjIYVjZv6NoTwUR07Y6cqSs/8ACsSAAYAAIBkNJnFha0bx1t2yqfUjRmAPFkMBABojwBwN5gXgfXxeeoWXYABViQADAAAAH8L/8Yus3+OnQfUo1POF/Ppfe5FAMiYAHB7bnN94QDArwSzuuEi9wLAGgkAd4vrDMCKflRAAAAAcjaazA7SQoquv90Tu/+e514EgMwJALdHABgAMpaOZbdJun1346a+yb0IsC7jpr6vivJDCOGtonaCADDAigSAAQAAyNJoMtsNIcSuv1PvgM7S/RcAi4EAAO04UvdO0K0U1u9SALgzPPMDrOgHBQQAACA3o8nsNHW1E/7tLt1/ATKn6xwAQKuEsrrhIvcCwLqNm/oyzT3Svj1jALAaHYABAADIQur4exJCODWx2Au6/wIgdNKu25xfPADgXqwD7sZNfZN7EWBDrkIIbxS3fVVRHo2b+ir3OgC8lgAwAAAAgzaazPZT6PdEF8He0P0XgCB00q5xUwsAA0De3Iu17zL3AsAGXQoAd8Z+7gUAWIUAMAAAAIOTQr/HKfRbGuHeOdP9F4AQwpEiAABsX1WU+zZRd4KOmLA5MQD8Xn07QQAYYAUCwAAAAAzCaDI7SkGhY6HfXrtbzKe6/wIQHapCa+4yfd0AwN/o/tsB46bWARg2ZNzU91VRXnvu7ASbfwFWIAAMAABA76Sw735akDowUTsoJ7kXAIDPXeeOlaFVtxm/dgBAALgLPuZeANiCS/PKnaADMMAKBIABAIBcHI4ms6Yjr/W6A7/Dc9yHEG468HvERafd9HcTssP2cTGfOt4SgKADEABAqwSA22d+BDbP56wb9nIvAMAqBIABAAC2r08h1jcd+B3IwyfdfwFYogNwuyyEA0DedGNsn/sx2LBxU99URRnnJHfUul1VUR7E8ci5BgCv9YPKAQAAAB1wsphP7w0EAHHhTwcgAIBWlcrfqk+CcLA1wvbdsNuHXxKgiwSAAQAAgLZ9XMynl0YBgORUIVoncAIAmUqbsWiXQCJsj89bNxzlXgCA1xIABgAAANoUj9k7MQIAhL8FTmLXn2PFaJ2u/ACQL10Y22czFmyPAHA3uPYAvJIAMAAAANCmk8V8KmQEwIMY/t1RjdYJnQBAvnRhbJ9AImzJuKlvUoMC2qX7PMArCQADAAAAbZkt5tNL1QdgyZlitG/c1DbnAEC+dGFs2bipBYBhu3zm2ufaA/BKAsAAAABAG+rFfHqq8gA8qIoydv/dU5DWXWf++gEgd7owtqvO+cVDS5yA0r4y9wIAvJYAMAAAALBtnxwpCsATbAzpBt1/ASBv+7kXoGWCiLB9OgAD0FsCwAAAAMC2HS3mU+EiAH5VFeVJCOFQRTpB6AQA8uZEhna5F4Pt87nrgKooNYwAeAUBYAAAAGCbflrMpybVAXjsTEU6w3UaADJVFaXuv+1zLwZbNm7q2KjgTt0B6CMBYAAAAGBbfl7MpxeqDcCyqijPdJrrlNvcCwAAGRMAbp8AMLTDZ699rkEAryAADAAAAGzDh8V8qrsjAF9IXebeqUp3jJvawjcA5Ev4ql13qRMpsH2eg9rnGgTwCgLAAAAAwKbF8O+JKgPwhEtF6ZQ69wIAQOaEr9rlJAZojwAwAL0kAAwAAABsUi38C8BTqqKMneFLxekUi94AkLfd3AvQMvdi0B4B/PYd5V4AgNcQAAYAAAA2pTZxC8BTqqKM14d3itM5QicAkLeD3AvQMgFEaMm4qT0LAdBLAsAAAADAJnwO/y7m03vVBWBZVZTxaOlLRekki94AAO1xLwbtqtUfgL4RAAYAAADW7aPwLwBPqYpyN4V/dxSoe8ZNfZV7DQAgczoAt8s8CrTLZ7Bdhzm/eIDX+lHlAAAAgDX6sJhPTxQUgK+IAdNScTpJtysAwCatFo2bWgdgaNeVECoAfaMDMAAAALAuwr8AfFVVlBfCv52m+y8AQHs+qT20TgdgAHpHABgAAABYh5+EfwH4mhT+fatAnSYADAAZq4rywPi3SvdfaJ/PYcuqotzPugAAr/CjogEAAAAriB1qThbz6aUiAvBYVZS7IYQY/n2jOJ1nsRsA8rabewEAaF0MAN8aBoDn0wEYAAAAeK06hHAk/AvAU1L490r4txfuxk1tkRUAoD02Y0HLxk3tVBQAekcAGAAAAHiNjyn8a4EKgN9IR0jHa0SpOr1goRsA0AG4Xfc5v3gAAF7nR3UDAAAAXuiPi/n0XNEAeEpVlCchhHid2FGg3tDNHwA4yL4CACHchRD21AGAvhAABgAAAJ4rToAf6/oLwFOqooxd485CCFMF6h0dgAEA2uV+DLrhVgC4VQe+DwFe5gf1AgAAAJ7hQ5yAFf4F4ClVUT4s0gn/9k89bmpHTgMAANC2XSMA8DI6AAMAAADf8imEcLKYTx0NDsBvpK6/pyGEd6rTW67xAAAAfxObHxyqBQB9IQAMAAAAfE3s+nu6mE91BQTgN6qiPAohXDgetfcEgAGA6EgVAIJ5UAB6RQAYAAAAeOwudf29UhkAHquKcj8Ff3VF6r+7cVPf5F4EAIC2jZvaHAwAAC8mAAwAAAA8+BRCOF/Mp2cqAsBjKfgbrxFvFWcwdP8FAAAAgJ4SAAYAAACiDzHUtZhPb1UDgGWCv4Om0xwAAMDfmRsFoFcEgAEAACBv1yn4KwAEwBcEfwfv07ipdQAGAAD4OwFgAHpFABgAAADyVIcQTgV/AXisKsrjeI0IIRwqzqAJ/wIAAABAjwkAAwAAQF7uUsffC+MOwIPU7fck/ewpTBbOcy8AAAAAAPSZADAAAADk4ToGfRbzqW5/AHxWFeVuCOE4hX51+83L3bipb3IvAgAAAAD0mQAwAAAADNt16vh7ZZwBWAr9xp832RckX04CAAAAAICeEwAGAACA4fkUQrhMwd9b4wuQt6oo95dCvzr9EgSAAQAAAKD/BIABAABgOO5i6DeGfxfz6b1xBchT6vJ7lAK/8c89bwWWXI+b2gYhAAAAAOg5AWAAAAAYhp8X8+mZsQTIT+rwG4O+B+nP0tuAb9D9FwAAAAAGQAAYAAAAhuHdaDI7jd1/Qwjni/n0xrgCDE/q7nuwFPg90OGXF/g0bmoBYAAAAAAYAAFgAAAAGI6dEMLb+DOazO5Sh7+LxXzqmG+AHqqKMoZ795cCv/vCvqxI+BcAAAAABkIAGAAAAIYpBsTepc7AH1MQ+NJYA3RLVZT7SyHfXUFfNuxcgQEAAABgGASAAQAAYPjexJ+lrsDni/n03rhDPqqijJ3AH7qBf+3v9+OmvvG2WJ+qKHdTsDcsBXz3l36EfNmmD+OmdioAAAAAAAyEADAAAADkY7kr8IcQwtliPhUEgjzsLYVND7/2iquiXP7Hu6VwcHgUHI7iRoLHgeHBhogfhXlDCvMu//PR0t+/WmNo0YXiAwAAAMBwCAADAABAnt7Gn9Fk9jF1BL7yPgAe2XvUofZZodZHIeJl19/5Tx8HjDftcYB3WfzfvvpCoIeux03tWg8A0FFVUR65XwMA4KUEgAEAACBvb+LPaDK7Th2BLTYBm/K9ALGuubA5Z2oLAADwXbtKBECf/GC0AAAAgBS8+/NoMrsaTWZHCgIAg3GnmxwAAMCzfO2kIADoJAFgAAAAYNlyEHhfZQCg93T/BQAAoA9sXgV4IQFgAAAA4CkxCPzX0WR2IQgMAL0Vu/9eGD4AgM4z9wIAwIsJAAMAAADf8jaEcDOazM5Gk9muSgFAr5waLgDgmW4UqlUCwAAAvJgAMAAAAPA9OyGEdykIfKxaANAL1+OmvjRUAMAz3SsUQDhSAgD6RAAYAAAAeK69EMIvo8nsajSZ6UwDAN12ZnwAAHrDqUsANqMAvJgAMAAAAPBSh6kbsGARAHRT7P57ZWwAAHrjwFABuRs39U3uNQB4KQFgAAAA4DV2QgjvRpNZDAJbpAKAbjkxHgAAAC9mnhOAXhEABgAAAFZRhhD+ohswAHTGbNzUt4YDAHghpwe0az/nFw8dsmMwAOgTAWAAAABgHR66AVuwAoD2fAoh2JQDANA/e8YM2lUV5a4haNVdxq8d4NUEgAEAAIB1id2AYwj4VEUBoBWn46a+V3oAgP4RPoTWHRiCVjnJBuAVBIABAACAdYrH5P1pNJldjiYzC1cAsD3X46a+UG8A4JVsImqf8CEAAC8iAAwAAABswpvUDdjiFQBsx4k6AwCvNW7qG8UDMneUewFapgMwwCsIAAMAAACbshdC+MtoMhNIAoDN+nnc1BZLAQD6TfgQyJlnWoBXEAAGAAAANu39aDJzJDkAbEY9buoztQUA1uCTIrZqN+PXDl0ghA9A7wgAAwAAANvwdjSZ3YwmM4tZALBeOu0DAOtyo5KtOsj4tUMXmLdsl2sQwCsIAAMAAADbUsaJ3NFkZkELANbjj+OmtkgKADAM+8YRWlUqf6vuM37tAK8mAAwAAABs014I4Wo0mR2rOgCs5Hrc1OdKCACs0a1itmov49cOraqKUsOC9gkAA7yCADAAAACwbTshhF9Gk5kjywHgdT6FEFxHAYB1EwBumRAitGZX6dvldBuA1xEABgB4gb/e/zfKBQDr8340mZ2qJwC82Mm4qQV0AIB1032xffu5FwBacqTwAPSRADAAwAv867/9Z8oFAOv1p9FkdqGmAPBss3FTXyoXALABui+2TwdgaIfPXruuc37xAKsQAAYAAADa9lYIGACepR43te75AADDJYQI7dB9G4BeEgAGhs5RRQAA0A9CwADwbZ8cSwsAbNK4qa8UuHUCwNCOUt1b5foD8EoCwMDQOaoIAAD6QwgYAL7uaNzUNrsDAAzbnvGF7aqK0kZLAHpLABgAAADoEiFgAPitn8ZNbaM7ALAN16rcLmFE2Dqdt9unAzDAKwkAAwDQdbURAsiOEDAA/N1s3NSuiwAA+RBGhO3ymWuf024AXkkAGADgBf7X//u/Vq7t89APkCchYAAI4cO4qU/VAQDYIl0Y26cDMGyXAHDLnHgD8HoCwAAAAEBXxRDwidEBIFPxNBThXwBg2zRkaJ8wImxJVZS7IYRSvVt1l/FrB1iZADAAG/Pv/8N/qbgAAKzqvRAwABmK4d+jcVML4AAA26YLY/v2UigR2Dwdt9t3m3sBAFYhAAzAxvxf/+G/UFwG5//4l38wqACwfTEErPsNALkQ/gUA2iSI1Q1CibAdPmvts/EEYAUCwMDQuVkE1upf/qPbJwBoyZUQMAAZ+BRCOBH+BQDaMm5qAeBuEEqE7fBZa5/rDsAKJFiAQVvMpxZLWvT//Mcfs33tDNO//tu/M7LtsJkDgGgnhHAxmswcgQnAUH1KnX89AwEAbbs2Aq0TSoQNq4oyzjOW6tw6z8AAKxAABmBj/vd/+c8Vl0G5++f/1oC2w2YOAB7ECfkL1QBggIR/AYAuMSfbvjKFE4HNEbTvBs/BACsQAAYAAAD65M1oMjszYgAMiPAvANA17ku6QTgRNstnrH2fxk1t0wnACpzN3r793AsAW3AXQthT6Hbc/fNB2PudeSKG4X/79y7b0HN3OodQOfu6AAAgAElEQVRmb3lC9yCEsJN7QXrs3Wgyu1rMp1e5FwKA3hP+BQC6yL1JN8S5rMvciwAbdKy4rXO9AViRAHD7JIlg824FgNvzr//2D7m+dAboX//jf2pY23Gb44tmI24X86muoXxhNJnFhZTdFAiOfz9Uod64HE1m+4v5VIcIAPqqDiGcCP/+/+3dX4xk2X0f9lMbUl6bpGZWEleKxWB6LaylYmJVr2JKMFPI9KD4YMeEtwknDxEgbI8NCDASoHrjQC962J4HJxEQeLsQOUCethsBAkSGwZnAEozIZU5TRQkSZXKu/rAi0lp2O/yj5RLZac2uzGwWusGZPbVb83+6u27Vufd+PkBjbFoyu3+n69zb53zP7wAAGbImm4cYTtxuexGgCpNOb02GIAsaPACckQAwAJV6/a0fUGAa449vahS5IhabgcrMdZB9r5tKCgVvpkBwT/WzdS6Nm6v6AKijInX+dZAFAMhOPKA06VgSycCFGFLsl4U1clg83X/zYH4DOKMnFBCAKr321verL43xJ//uLxhMgBaIoeDpeLg9HQ9jV+BnQgijEMKRsc/Sxe5gpBMOAHUj/AsA1MGBUcqCg89QDQHgPLgRB+CMBICBNnBtxAq9+qdPtfZnp3m+9b0PGtXVsCkOrMx0PDxMYeB4Jdxlm19Zerk7GK23vQgA1MZ+vyzWhX8BFmJNGaFSQll5EFKEBZt0eudjYwF1Xb3Ycb7tNQA4KwFgACr15tsfUGAa4SuvfdJArsh0PPTHP5CF6Xi4Nx0PY9eVS4LA2dlrewEAqIUr/bLYMlQACyMADNVyLXsenm97AaACgvV5sMYOsAACwABU6ktvfFiBaYTX3/oBAwnAbdPx8HoKAseOwEeqkoVedzDaaXsRAMjWcXxv6JeFZxUAUCcaM2Ri0ukJK8Ji+UzlwXMGYAEEgFfPtQJQvetqvFqvv/lsm398GuK1t77fUK6GYB2QrdgROISwHkIYGaUsvNQdjHQAAyA3Mfy70S8L3eoBgFrpl4X9tXwIK8KCTDq98zprZ0MAGGABBIABqNzrb31Ukam93/uu3+MVcc0ckLXpeHhzOh5uhxAupYAPqyVcBUBOing9fb8sbGoCAHVVGLksCADD4vg85cPfygALIAAMtIHw2Ir9wXc0YqP+vnbrLxlFAB5oOh7GrjhrNsZW7mJ3MLKID0AORv2yWO+XxU2jAVAZC89QPeGsPJybdHrWO2AxttQxDw7LAiyGADDQeNPxUAB4xV7906da/fNTf6+/+Wy49Y7XphVxzRxQG6kb8HoIYd+ordRudzA63+KfH4DVijcCfKZfFtvGAaByF5QYKmd9Nh8CwHBGk04vHh66qI5ZOGh7AQAWRZIlA93BaL3tNYAlcB3zCv2b4w+19menGb7ynR83kgA8tul4uCUEvFIxBCB0BcAqxJsAYtffq6oPADSE7oz52Jx0eg48w9no/psPB0wAFkQAOA9e1KF6FihW6Fvf++DtDqpQV68e/5CxWx3zN1BLQsArt90djFwHDMAyXemXRQz/uokKAGiMdD27Jjt5OKcLMJyZAHA+BIABFkQAGGiLm0Z6tQ5vuo2N+iq++4NGb3XM30BtCQGvVNwU22nxzw/A8hyFEC71y8JzB2AFJp3ehrpD5TRpyIcAMJxSemewYZ0PzxaABREAzoOuRFA9L5Ar9gevf6zVPz/19dbbT4ev3nrSCK6O+RuotRQCPjCKK/GCLsAAVGwUQohdf3UuAgCazLtOPp6fdHrWOuB0dP/NR9EvCw2AABZEADgPXtKhel4gV0wHVerqK9/5SWO3QtPx0PwNNMFm6g7I8unGCEAVZl1/t21aQusdtr0AQCsIAOdFiBFOKAXnX1C3bHiuACyQADDQFjpIrljsoBo7qULd6F69UkWLf3agQdJhBlc0roYuwAAsmq6/wDwB4NXbaHsBoGree7IjAAwn53OTF88VgAUSAM7DetsLAEtgITYDOqlSR1/4tuD6CumkBTTGdDyMB9KuGNGV0AUYgEUodP0FAFrswOBn48Kk03PQHE5mW72yIgAMsEACwHk43/YCQNWm46EAcAZ0UqVuXn/z2fCt733QuK2OBQCgUabj4Y7u5iuhCzAAZ3EcQnixXxa6/gLkybs+LIf3oLzoZgqPadLpxc/LOfXKRuFQLcBiCQDnweIELIewxYrppErd/M43da1eMQsAQBPpNrEaNsYAOI39uHbbL4td1QPIlj02WA4B4Lw8P+n0zH/weNwOlhfPE4AFiwHgG4q6chda/vPDsgiSrVjspHr0xnqra0C9/P53f8SIrZb3VKBxpuNhXOC8ZmSXbrs7GLl9B4DHFa+4vtQviy2diQCyJwAHS+AmhCwJNcIjTDq9TXmc7HieACzYE9Px0AJmBlxHCkvhZTIDf/CdH2t7CaiJt95+Onz+NTmhFRMABppKF+Dli9f8bbbthwbgxI5CCJf7ZbEh5AJQG0I9sDwHap2VzUmnZxMDHs46bGb6ZXG17TUAWLQnVDQbAsBQvUM1Xr1f/7emO+rhd7/x00ZqtY4dVAOaajoeHuoCvBIW/AF4kOMQwov9sljrl8WeKgHUi2vwYWmEtvJyzloHPNik09sIIVxUoqw4SAJQAQHgfFicgOoJAGfgq7eeDK+/+Wzby0AN/Na3NQ9ZMd1/gabbNcJL1+sORust+5kBeLgY/L0S12b7ZeHZDJyGw8t5sMcGy+GGhPwIAMOD7ahNdhwkAaiAAHA+LE5AxabjoYWJTPzON3+y7SUgc2+9/XT4/GtuzloxAWCg0dK76ZFRXrqtlv28ANzffPB3p18WAnzAqfTLwvpFHhz0gyVIc561jLycm3R61jrgLrr/ZkteA6ACAsD52Gh7AWBJLExk4Nf/rTMP5O13v/HTRmj1dG0H2kCnweXbbNsPDMAdBH8BmslJflge4a386HIK9/K5yM+Rw3MA1ZgFgA/Ud+UsTsByeKnMwFdvPRlef/PZtpeBjP3Wty8YntUzXwNt4Mqz5bvQHYyEgAHa50jwF6DRNNmB5bGWkZ8LugDD+9LnQfff/DhAAlARHYDz0Wt7AWBJBMoy8c+/9p+0vQRkKobTP/+aczmrlq7GB2j6XHfohoqVEAAGaI/4nL3cLwvBX4Bmc+UcLI912zzpdgrv83nIkwMkABURAM5IdzBab3sNYAkEgDPxhW8/3fYSkKnPff0Thmb1hOGANrHwuXy6gwE037UQwqUU/N0z3kDFCgVeOdd5wZKkA1XX1Ds7sQvwdtuLAOlz4L0gP8f9srAODlARAeC8CABD9QSAM/Gt730wfPEbn2p7GcjQ//l/f8ywrJ65GmgTnXOW74IDuACNdBxCGIUQnumXxWa/LDxjgWXRXTwDk07PQT9YHu9ZedqZdHquN6S10u+/7r958twAqNAsAGyyzYMNSKhYumb5WJ3zcO1r/2HbS0BmYig9htNZOQFgoE3Meaux2cYfGqChYufNy/H6935ZbPfL4tBAA7SSPTZYHl0c83QuhKALMG22kz4H5MdzA6BCOgDnxeIELIeQRSa+9MaHw+tvPtv2MpCR8dGPG448OJwGtEY6oMby6Q4GUG+zbr/P9ctivV8We+k6agDayx4bLEk6cFWod5a2J53eWtuLQPtMOr34HjA09NkSAAaokABwXi62vQCwJIJlGfnf//BS20tAJmIY/fOvuR0rB9Px0DwNtM2BEV+6i93ByIMfoH6uxW6//bI4n7r9OuQN5MA6Rh4EgGG59tQ7S+dSF1Rom10jnq1rDuwCVGsWALZQmonuYGSBAqpnQTYjv/HaD4a33n667WUgA8Lo2dA5AoBl8fc3QD3EvxFeDCE81S+Lzdjt17gBcB+9SafnkB8sj26O+Xph0um5+YjWmHR625rtZc3zAqBiswCw0xb58DIO1XPoISO33nki/OoffartZWDFYgg9htHJgjkaaCMH1FbD398A+ZqFfp/pl8V6vyx2dQwC4DE45AdL0i+LQ80csqYbKq0w6fTWdL3OngAwQMWeUODs2ICEik3Hw7hhdKTO+fhnX7+gCzArFUPoMYxOFoTgAFgWf38D5OV+od9DYwTUgLWMfHjHh+VyM0O+eqkrKjRdnIfOGeVsXXOYF6B6s6SLTmv5sDgBy2FRNiO6ALNKMXweQ+hkw/wMwLLoDgawetdCCJeFfgFYEHtssFy6OuZtJ3VHhUZKIfeLRjdrnhMAS3A7AJy6YZKHc93ByCYkVE/ALDO6ALMquv9m5Xg6HtrsB2BZ4t/fNsIAliveyLQfQvhMvyw6/bLY7JfFntAvUHPmsHxcnHR659teBFiW9A5XKHi2zunSTFOlcPuOAc6eADDAEsynXY4VPBtOKEP1BIAzowswq6D7b3bMzQAsmwAwQLWOU5ffF1OX37V+WWz1y8ImINAYDjFkxx4bLJeAad7iwYjNtheBRtpLIXfytd8vC80oAZZgPgB8Q8GzYXECKpY6TB6pc150AWbZdP/NjgAwAMvm72+AxTsIIVwJIVzql8X51OV3V0AOgCURdIPlcrArf3u6o9Mkk04vdv69aFCz5/kAsCQSL3l6vjsYeQmH6gmaZSYGMX/lD/+ztpeBJdH9N0vmZQCWTQdggLOZdfidBX47/bLY6JfFTr8svN8DbXJgtLPhkB8sUTrkdU3Ns3ZOEI+mmHR66yGElwxo9o7d/AOwPPMBYAuyeXFCGapn3svQP/36j4bX33y27WVgCWLYXPffrBxPx0M3UgBtZYN6dQSAAU6miNd4hhAuhxCem+vwK/ALQC4upHAQsDxCXvm7OOn0ttteBOotdbI239TDXtsLALBMUi/5EgCG6tmYytToi7oAU60YMo9hc7Ji0QaAVRAABniw4j7dfdf7ZbHVL4u9flk4wAfwPmvNedlqewFgmeK7YboZgrztOCBBzcW5xtWe9SAADLBEOgDn6/nuYHS+7UWAKk3Hw3gt0ZEi5+dLb3w4fPEbn2p7GaiQkHmWvIsCbWbzZXVsGgC8K15dPwohvHhX2Fd3XwDqSJMdWD4NHvJ3LobyUhdVqJVJp7cTMzRGrRYKB4YBlusD6p21TSdjoHJxQWKozPn5X37vp8LHn/698KHv+07bS8GCxXB5DJmTHYECoJXSwc9zRh+AJYlB38P0Fd/BD/tlcaj4AGcW59SXlDEbFyad3oYDLLBUuyGEF5Q8e700VjqlUxuTTm/Te1at7La9AADL9l4H4Ol46I/g/HjxhuqZ+zL1re99MPzKH+rSymK99fbTt8PlZKdIXdkB2kj33xXrDkbGgLa4lsKfhRFvvIM03ldCCJdjR98QwlOpq28MQ23NuvoK/wLQYPbYYIlSt0d/a9TDC5NOzxxJLUw6vXVN82rlWEd4gOW7uwPwsc5DWbnYHYzWBGKgOtPx8Gp3MFLhTP3Tr/9o+Jm//Mnw8R/+zbaXggWJofIYLic7DmMAbbZh9FfO1Ze0Qr8s7rkKO22kzT4Ds/no/NzhhPOpQxT5iOu3s6s0r8//q8shwOrEOXjS8cjMzGa85r5fFjfbXghYohjSe1nBa+GVSad3wzX95Cw+x1OYVIapPq569wJYvrsDwPEF76JxyMp2+gKqE7viPK++efrH/7ofRp/6N+FD3/edtpeCMzp6Y/12qJwsOQ0MtJkAMLAyd232PjQ8mjbe5jtmz89fa+lrxvriyR3M/W/MxuLmXNj3hk00gOxpspOXc6kLsGuoYXliAHjHXFgb8fDKmr8zyFFag4h/G18wQLXivQtgBe4OAB9aoM/OVncw2pmOh168oTrXBYDzFbu1xq6tl59zuwtn8/LvDlQwT8fT8VCnMqDN/A0O1ELaFJ5/b3vsd7hJp3f3YYe7A8MP+s9m/3nuG35HaV113nx4d2a+Zjd12wJoHE128rMtiALLE/9mmHR6sdnDC8peC+dSCHhDCJgM7bmRqHYOrHMArMb9AsDk5VxaoNgxLlCZq64kylvs2vofffRT4RMf+5dtLwWn9Cu//7Phq7eeVL486f4LtFZ3MLrnOn6AJorXolf5Y006vdiZ+HyF/xXCugA8DgHg/FyYdHpb/bLQXQKWZ1cAuFZ6acy22l4I8jHp9PY076ol71sAK3J3ADguxr9kMLKzJQAM1ZmOh4fdwahwijBv/+OXPhF++fxR+OiHv9b2UnBCX3ntk2Hva88oW750/wXaTAAYYAGEcwHIhO6JedoSSIHlie/mk07vwIGIWnlh0unFsRMCZuVS+Nchgvo5duAKYHWeuOu/WQfgPF3oDkbbbS8CVEwHyszdeueJ8I9+6++0vQyc0FtvPx3+8b/uK1vezL9AmwkAAwBAczjknKeL8Xr7thcBlkwIrH5iCFgAmJWadHo7wr+1tdv2AgCs0h0B4NgF02hka6c7GFV5lSG0nQBaDXz11pPhl3/759teBk7gf/rifxG+9b0PKlm+rk3HQ91xgFbqDkZxU+Wc0QcAgMbQkT5fwoiwRKkL5JGa184rQsCsSvrdc1t5fQkAA6zQ3R2AowMDkqW4MawLMFRkOh7esBhRD7/2zY+Gg1c/3fYy8Bh+9Y/+bvj8a87OZM7hC6DN/H0HAAAN0i+LeMj52Jhm6YJQGyyd4H09CQGzdOl37hWVr6399B4MwIrcLwCsC3C+XuoORmttLwJUSBCtJn7pRi8cvbHe9jLwEF957ZPhn/zhTyhR/sy7QCt1B6N4/WzP6AMAQOPoApyv3Umnp1sALM+uQxG1JQTM0kw6vR3h39rbaXsBAFbtfgFgixN5c1oSquPzVSO/8Bt/SwiY+3r9zWfDld++qDj5uzYdD50IBtrKoigAADSTPbZ8nfO3GCxP6gapAUR9CQFTuUmnF/fmX1LpWjvol4UmkwArJgBcPxe7g5GXbajAdDyM89+R2tbDrXeeCC//7iC89fbTbS8Fc+Lvwz/6rb9z+/eD7Fn8BVqpOxhtxr/rjD4AADSSPba8DSed3kbbiwBLJHRfb0LAVCaFf19Q4dozzwNk4J50zHQ8vG5gsrfbHYzW2l4EqMiuwtbHV289GX7x4OeEgHnPf/+F//L27wXZOxYABtqoOxid974JAACNJgCcv71Jp3e+7UWAZUhdIfcVu9aEgFmo+AyedHpXhX8bIXb/lS8DyMCD2uMVBidr54RmoDI+WzUjBMzML//2z4cvvfFh9aiHq9Px8GbbiwC00nYI4YKhz45r6gAAWIh+WQgA5y/+TbbX9iLAEjkIXX9CwCxEOoATA6PPq2gjeJ8CyMSDAsAWKPLX6w5G/mCCBZuOh4cOQdSPEDAx/Ptr3/xo6+tQIw5bAK3THYzWQwgvGfn8pL8BAABgUQ5UMnvPTzq97bYXAZYhHYwwL9ZfDAHLJnBqk05vPR3C76liIxz1y0IAGCATAsD1NuwORk7bweL5A7aGhIDb61d+/2eFf+vlaDoeCgADrdIdjM47/AAAAK3hKuR6eHnS6W20vQiwJDsK3QjDSacn8MeJpQ7S19NN1zSDeR0gIw8KAFucqI9XuoPRZtuLAAsmnFFTQsDtc/Dqp8Pe155pexnqxhwLtNHVdM0s+Tk2JgAALJgmO/VxNXUkBCrUL4vrugA3xguTTu/GpNM73/ZC8HgmnV4Mir4i/Nsouv8CZOa+AeDpeHjDJlit7KXrZIEFmI6HN0MI+2pZT0LA7RHDv790w01BNaTLOtAq3cEoLoZeNOrZEs4AAGDRNNmpjxhGui4EDEuhW2RzxI2ZG+ZOHiaGxCedXnwnekmhGsd8DpCZB3UADjbBauX2AoUQMCyUU2s1FkPAw3+5FY7eMC021S//9s8L/9bTwXQ8PGx7EYD26A5G27EziiEHAID26JdFbDBxZMhrQwgYlkAX4Ma5kObOrbYXgntNOr2NEMKhpgiNpPsvQIYeFgB2QrleZiFgL9mwANPx8LpF2nr71vc+GH7hN/5W+Mprn2x7KRonhn9/7ZsfbXsZ6sqiANAaKfz7shHPnsPPAABUwR5bvQgBw3LoGtksce58ZdLpWffnPZNOL37OP5d+P2ge8zhAhgSAm+X2S3baaAbOzjX1NXfrnSfCf/uFS+Hg1U+3vRSN8NbbTwv/1tvxdDy0EAi0Qncw2hP+rY2bbS8AAACVsMdWP+d0s4Rq6QLcWC9MOr0bDlG026TTW4u/ByGEl9peiwYrdP8FyNMDA8Cp+yX19HLccO4ORueNH5yJF9iG+KUbvdvBUeorhn9/8eDnhH/rzZwKNF78GyyFf18w2rWhAzAAAFWwx1ZPs26WmoNAdXSPbKZeOkShUVkLpXG/kX4PaC6fb4BMPawDcHTNwNVW3HC+0R2MNtpeCDit6XgYu4HtK2AzxODo9q//w/D6m8+2vRS1c/TGevh7/+Lvh6/eerLtpag7GydAo3UHo/W0yS/8Wy86AAMAsHD9sjiMy1oqW1tD3SyhGqkLsL23ZoqHKF6edHoxCKxRWQvE52Qc73QT2rm216PhDtL8DUCGHhUANoHX24UQwue6g9GubsBwagJrDRIDpP/1v/rPw8Grn257KWojjtU/+NzfDrfeedQrC5m7Nh0PDw0S0FTdwWg7/f2sy0XNuP0IAIAKedest1k3S91KYfF8rprtYgjhcNLpbbW9EE0VA97p+fjlNN40n3kbIGMCwO0wTN2AvWTDCU3Hw3hdyYG6NUcMkv7SjV74H77wX4W33n667eXIVhybX/7tn789VjSCwxRAI3UHo7XuYKTLRX0dt70AAABU6qry1l78O++lSacXg2xu3IQFSV3SdQFutjh/vpK6Aa+1vRhNMun0NmP2JD4f216LFtnX/Rcgbw8NAKfgmyuKmiF2A36lOxjFILBFCjiZPfVqns+/dj78vX/x98MXv/GptpciO0dvrIdfPPi58Gvf/GjbS9EUR7orAk0Tb1jpDkax68HXdbmotRttLwAAAJWyHtIct2/cTEE2e2ywGNsO5rZCXDf7euwWG7vGtr0YdRaD3PE5GEL4bHou0h66/wJk7nHu07ZA0SyxleLnuoPRoY7A8Him4+GewxDNFLsBv/Q7P6MbcEZ+5fd/NvyDz/3t8NVbT7a9FE1iYQBojLng76EuF40gAAwAQGX6ZXHT7XKNc3EuCLzZ9mLAWaQ50s1x7RHX0W6YO+snBrcnnd6eRgitdSV1bQcgY48TAHZFUTPNOgLf7A5Gu/Hq2rYXBB7BIkSDzboB/+of/d22l2JlYtff7V//h2Hva8+0tAKNdZwOUQDUWvx76a7g7zkj2ggCwAAAVM0eWzPFANRnJ53eYepqaY8NTqFfFjsa8LTKhTR36qZeAyn4O1sPfaHt9WipYxkJgHr4wGN8lzoAN1vcuB7Gr+5gVIQQYkjn6nQ8dIoH7rSXulgKezRU7Ab8T/7wJ8Jn//gXwn/zH0/Cx3/4N9tekqWInZd/9Y8+JfjbXBYGgFrrDkaxK0m8OeV5I9lIAsAAAFQtBoBfVuXGupAOib406fTe22PTKQ9OZDuGQpWsVWbd1GOX/C1zZl5i8Dd9Lrfti7fedurWDkDmOmVZPvI77A5GV214ts5RWpiKAfDr0/HQg53WS13fXPXcEj/11JvhZz/+RUHgCh28+unwv/5fHw/f+t4HG/sztlw8GbzmHeJe3cHo0S/gVOVgOh7qLsFDpdDv7Msid4NNx8NO22uwbLHLj+siV6dfFn7ngcbwTFktz5STiV1iU1CU9ijS/loMA2u0BI/gud56+7EJkyDwaqVu9luCvyRFvyzWFYNlmHR69k1X56BfFvZNG+BxOgCHFAQVAG6XC7POwOHdTfAidUe6/TUdDy1Y0Ea7/uhpjy+98eHwpS9cCj/11CcEgRfsK699MvxvX/nE7RrTaLvCv0AddAejuJC5kb783dseB20vAAAAS3N1ttdCa/TS13DSif+8Fwi+vcfWLwu3kcCd4t7bl9WktV6IX6kj8I6DE8s16fTW02fwhTb93DzSthIB1MdJAsCvGNdWmy1W3H7x6w5GIXUJPkyLFjdn16cKB9NUMcjWHYx2dQFuF0HgxRH8bZ3dthcAyE93MIoh37X0taG7TKvZcAcAYFn2BIBbb7bHdttcKPjmXXtsN4WDaaP4ez/p9EbmytaL63Sfm3R6cX7c7ZfFXtsLUqVJp7eVOv5aH+Vu+4L4APXyWAHgFHq7phsSd7mQvu54KUzh4DC3eBFmCxdz/2N3/99nbk7HQ4sb5EwX4JaaBYH/6kf+RvjMj/1RuPhX/nnbS/LYBH9baV/3X2CZUrB35nwIYXY92drclyt3mWcRGwCApUjBtiN/k3CXWSD4jj22FA4Op9xjO3SFPjW2k8KI9t+IE+Erk05vN+3L7pnbFmPS6a2lfW6fNR7kWPdfgPp53A7AIXUBFgDmJHpz/7OPfXJsLkBM88x3jb5ex27RugDz1VtPhl+60Qv/8x/8tfA3/4Nvh08/+4Xw0Q9/rfV1uZ+DVz8dPvvHP367ZrTOjiEnUxe7g1FpcAABYAAAluyqzpac0Kn22OYCxDRPkfbYYgD8atO6RffL4mbqSPrZDL4d8nAu7ce+NOn0DlJH/fi7r/nICUw6vdgsYTOFOj0keJQdnzGA+umU5ePtf3cHo/hi8IYxBhboKP2xtlunTpFpPjx0MpKZv/qR793uCvzXP/Y74UPf951W1+X1N58Nn/v6J8I/+/qFcOudJzL4jliB0XQ8dDr4IQRQAVaumI6H64Zh+Sad3nVXS65Ovyw6bf3ZgebxTFktz5STm3R68f3zy3X7voGsHc11R21MWMsznkc4TodqYhD4qmLd31zod1OTP07goF8WGwrGsk06Pfumq+Nz3xCPHQAO74YVdAEGqhD/WNuZjoe7daludzDa0QWY+/lPf/hm+Bv//lGrwsBvvf10+N1v/HT49aMfC19648MZfEesUJzP1+p0qGMVBIABVs5hlRWxkbtawlpAk3imrJZnyulMOr0bOu8BFYhB4O2mhCEnnd5a6nKsCTg3g+EAABvDSURBVA+PMgsDX9cZ+L3DRhsp9Os9mdN4rmnd5akHAeCVEgBuiA+c8MfYEwAGKhD/iH+5OxjFB8tWTYJju+mqFAsQ3OHzr52//RVu9G53Bv7kj3w7/MzHvhIuPNWsv5dip9+vfOfHw299+8K7Py+8q1Yd3QForeuGHgCAFYh7bC8rPLBgF0IIn510evv9stiqe3H7ZXE46fR2NeHhMcQ92hfS1yuTTu8grflc75dF49d+Ulh+Y+7rQgbfFvV1RfgXoL5O1AE4vNux7KbAG1ChIv6hUocAmS7AnMRHPvDn4bkf/NPw137oT8Iz578dPv7Dv1m7+n3xG58Kf/D6x0Lx3R8MX731ZAbfEZnR/fcx6QAMsFrT8VDHuhXRrXG1dGsEmsQzZbU8U04nXcf9Rh2/d6A2GhECDrqmsxjvBYJjV+m6dwie6/A7+1fgl0Up+mWxrpqsig7AK6UDcEOctANwSCeUh20vHFCZXvpDrA4vmboA89huvfPE+92Bw0+EEC6Fn3rqzfBj54/DXzn33fDRD/0/WYWCj95YD4dvfCy8evxDAr88Lt1/AaiDa0YJAIBViMGjSad3zU2bQIVemHR6oSEh4PgzfDmD74P6upi+bjdzmnR6sQnVYQwDp73ow9hxOrefLh0YWk9fa+lfB9+oUiMOjgC02WkCwLsCwEDFerG77nQ83Mm50DHo1h2MYgD4lQy+HWroS298+PZXCD+avvlL4S8/+f+FH/mL/+/tYPCHPvB2eOap74QPffDPwoe+78/ChacWe/NKDPm+9fZfCq+/9QPhtbe+P7z6p0+FP/mzJ4V9OY2j3OdsAEiuKgQAACu0JwAMVCyGgGO30906FzpeRT/p9K64iZMF6qWv5+dCwSF1Cr6ZgsEhhYNDVV2D5wK+If17fu5fQV+W7Uqcb1UdoN46ZXnyTtrdwcj1WsAyPDMdD7M7eXm37mB06JoVlukjH/jz8OxH/uy+/40/+UOvv/d//r3vfvSe//c/+Xd/IXzrex80Xiza5el4uKeqj6c7GLnKBmB1ntKxfnVc175armsHmsQzZbU8U85m0ulZTwaqdhw7h1YRXly2GGZOoU1YpaPUPfhu88Hh6EHXqK959pOhol8WdbiVmYabdHr2TVfnoF8WD3p2USOn6QAc0glli2tA1XZqcuVE/B4/l8H3QUvceueJ1Dn4Xg/6z6FCB8K/ANTENeFfAAAysKejJVCxcyGE7bTPVndxD+7LfmFYsQsPCfDq7E9d1SGHAcBjeOI0RUohjyMFBir2QncwWsu9yNPxMHYcuZbBtwKwCk1YRAagHa4aZwAAMlDra/mB2thuwlClq+lfzOBbAWiSK2l+BaABThUATnR6A5ZhsyZVbsRCCsAJ7adDEABQBwLAAACsXLqSf99IABU7N+n06rLH9lD9sogHJw4y/hYB6iRe+a+5D0CDnCUAHF+0j/0yABXbqEOBp+PhYTwpl8G3ArAsxw4/AFAj16bj4U0DBgBAJoQugGWoxR7bY9qSTQA4s+M0nwLQIKcOAKeNM91zgKrVaXEiHow4yuD7AFiGHUEqAGrELUYAAGSjXxaHulkCS7DelCKneVNoDeBsttJ8CkCDnKUDcHBCGViCc3UpcgrC6YYJtEExHQ93jTQANXE0HQ8dYAYAIDf22ICqNSYAHN4NAce/7fcz+FYA6mg/zaMANMyZAsDpynsv2UCluoPR+bpUOAULrmXwrQBUyWEHAOpE918AALLTL4vrugADFatNk50TiGvTRW2+W4A8FPb2AJrrrB2AgxPKwBLU7YRyfHk+zuD7AKjCaDoeXldZAGpEABgAgFzZYwM4gX5ZxNs4t+zDATy2OF9upfkTgAY6cwBYF2CAO6V50cIt0ERH5jcAamY/vZ8DAEB2dAEGOLl+WdzQyRLgsW2neROAhlpEB+AgCAJwp+l4uGvhFmigrel46IQwAHWi+y8AALmzxwZwQv2y2NOkDOCR9tN8CUCDLSQArAswwH25gghokmvT8fC6EQWgRg48uwAAyJ0uwACn0y+LuA9XKB/AfRW6pQO0w6I6AAcnlAHulA5HmBuBJjhOhxoAoE50twAAoC6sIwOczqZmPAD3iPPiZr8s3OoJ0AILCwCnoNvILw3A+6bj4a7uDUADbE7HQ4sEANTJ0XQ8FAAGAKAWdAEGOJ1+WRymEDAA79tM8yMALbDIDsAhnVB2wg7gTlvmRqDGRq5PB6CGdFADAKBu3L4EcArpEMWLagdw24tpXgSgJRYaAE6d4WyyAcxJHdIt3gJ1VHi3A6CGdP8FAKB2Upc2N20CnEK/LOKNnPtqB7TcfpoPAWiRRXcAnl13f+SXCOB90/HwqoUHoIa20gEvAKgTh1cAAKgrN20CnFK/LLZSUwuANirSPAhAyyw8AJx4qADca9sBCaBGXpyOhzcMGAA1c6D7LwAAddUvi5tpHRmA09mwFwe0UJHmPwBaqJIA8HQ8vK7TJcCdUhfNTWUBauAg3eoAAHWj+y8AALXWL4t4oO3AKAKcXDpIsambOtAicb7bSvMfAC1UVQfgkE4oe7EGmJO6ab6oJkDGjh1WAKCmrqUDyQAAUHe6AAOcUr8sbuiECbTIRpr3AGipygLAqdOlBQqAu6SumrqkA7naSO9xAFA31iAAAGiEFOK4YjQBTifNo5eVD2i4y8K/AFTZATiG3FxTBHB/MZxQqA2QmRdTp3IAqJsr0/Hw0KgBANAU/bLYsYYMcHr9sthzKyfQYJfTPAdAy1UaAE620lXSACSpu6b5EcjJfupQDgB1cxRC8AwDAKCJtowqwOn1y8KtnEAT7Qv/AjBTeQA4deCxQAFwl9Rl0/wI5KBwbToANbaVDtgBAECjpCudrxhVgNPrl8WWEDDQIPtpXgOA25bRATiG3K6GEK4pOcCd0vxoARdYpdiJfFNwCoCaujYdD68bPAAAmqpfFjvp8DYAp5TCcvIKQN0J/wJwj6UEgJOtdC0nAHOm4+GOk8fACm2mGxsAoG6O3agBAEBLbKb3XwBOb8uBCqDGCuFfAO5naQHg1FVu0ygA3Ne2RQdgBS7rmghAjW3pYA8AQBv0y+LQ4TeAs+mXRVxD2LAfB9RQkeYvALjHMjsAxxDwjRDCi4YB4E4puLChUzqwRKPpeLin4ADUVHyOXTV4AAC0Rb8s4vvvyIADnJ4QMFBDt8O/af4CgHssNQAc3g257brqHuBec53SXeUGVG1/Oh5uqzIANRUXvXcMHgAAbdMvCzfJAZyREDBQI8K/ADzS0gPAiQUKgPtIndJd3wFUqUjvYgBQR/Gw3FY6PAcAAG20oYkEwNkIAQM1IPwLwGNZSQBYl0uAB0sh4MtKBFTg9mKB0BQANbad3pcBAKCV5kJr9tgAzkAIGMiY8C8Aj21VHYBjwO1Ql0uA+5uOh3tCwMCCxU2hTeFfAGpsP70nAwBAq/XL4oYbngDOTggYyJDwLwAnsrIAcNDlEuChhICBBTpOnX8PFRWAmioEHAAA4H39sojrx1eUBOBshICBjAj/AnBiKw0Ah/cDbi+u+vsAyFGaI/cNDnAGs/Cv69IBqCtd7AEA4D76ZbFj/Rjg7OZCwNeUE1iR/X5ZrAv/AnBSKw8Ah3cDbrsWKADubzoebpkjgVMS/gWgCXSxBwCAB+iXhfVjgAWIobt+WWyaU4EV2E/vdABwYlkEgIOAG8BDmSOBUxD+BaAJLnuWAQDAI227uh5gMRysAJZM+BeAM8kmABwE3AAeyhwJnIDwLwBN8OJ0PNwzkgAA8HBzV9cLAQMsQArjvaiWQMUuC/8CcFZZBYCDgBvAQ5kjgUf5i/9e+Y7wLwANsD8dD3cNJAAAPB4hYIDF6pdFXJe4rKxARWL4V/MDAM4suwBwEHADeChzJPAgH/nAn4f/7pP/qhD+BaDm9tM7LwAAcAJCwACLlcJ5l9KtewCLEOeT54R/AViULAPAQcAN4KHSHDlSJWDO8a13nnjub+78H39dUQCoMeFfAAA4AyFggMXql8X1NK8eKS1wRnEe2eiXhUY+ACxMtgHgIAQM8FDT8XDb1UNAEk8Lb+j8C0DNCf8CAMACzIWAD9QT4OxSWG/d4QrgDOL8sS78C8CiZR0ADkLAAA81HQ/3hICh9YR/AWgC4V8AAFigGALul8WGPTaAxZg7XGFeBU5qv18W62keAYCFyj4AHN4PAQu4AdxHCgF/JoUAgXaJp4XXhH8BqDnhXwAAqEi/LDTaAViQdLgizqsvqinwmF5M8wYAVKIWAeBwZ5dLATeAu0zHw6vp1LE5EtqjSJ1/nRYGoM6EfwEAoGIpdKLRDsCC9MtiN4Rwyb4c8BBxfriU5gsAqExtAsDh/RCwgBvAfaQOoOspFAg0WwxLrQv/AlBzI+FfAABYjn5ZuEkOYIH6ZXHdvhzwAHFeWE/zBABUqlYB4PB+wG3NizTAvabj4WE6KHGgPNBYwlIANMHl6Xi4bSQBAGB5+mUxu0nOHhvAAvTLYrYvt6+eQLLfL4v1ND8AQOVqFwAO7wbcbsaud16kAe6V5kiLDdBMwlIA1F3sNvaZdMMPAACwZP2yuJHCatfUHuDs+mVxs18WsWnHZV3WodXi5/9ymg8AYGlqGQCeSd3vvEgD3MfcHAnUX3zXeU5YCoCaO4pBg+l4eNVAAgDA6qSw2mYI4YphAFiMflns6bIOrRU/9xtpHgCApap1ADi8G3DzIg3wAGmOfM5BCai1+I6zNh0PbxhGAGosPs/WPc8AACAf/bLYCSFcsn4MsBhzXdbd0gntsZ/Cv9Y9AViJ2geAw7sBt9mL9CiDbwcgK2mOXHNQAmppfzoexrDUTcMHQI2NPM8AACBP/bK4ntaPrxkigLNLXdbjLZ2fccACGi1+vj8TP+/xc2+oAViVRgSAw7sBt5vT8XDbizTAvdIcue6gBNTK5el4uGXIAKix4/Q82zaIAACQrxRW2wwhvGiPDWAx+mVxNd6GFEI4UFJonPi5Xk+fcwBYqcYEgGem4+FVJ5UB7s9BCaiFoxDCc9PxcM9wAVBj8faJDc8zAACoj35Z7AqrASxOvywO+2URbzK+oqzQGC/Gz3X8fBtSAHLQuABweL/T5aaQG8C90kGJ9RTKAPISDzDFK9JvGBcAamwUb5/wPAMAgPqZC6vpBgywIP2y2ImNP+zNQa3Fz+9z6cAUAGSjkQHgmbluwK68B5gzHQ8PYyjDiWPIxuyK9M14kMmwAFBT8Xl2Kd06AQAA1NhcN2A3bgIsQL8sbvTLwt4c1NOV+PmNn2PjB0BuGh0ADu93A46bj5ecqAO403Q83Enz45HSwMq4Ih2AJoihgLXpeHjdaAIAQDOkbsCzGzetIQMsgG7AUCuzrr87hg2AXDU+ADwTNyFTt0tXFgHMSSGNOD/uqwss3RVXpANQczEE8Bld7AEAoLn6ZXE1rSFfsccGcHZz3YBlFyBP8XP5oq6/ANRBawLAM9PxMF5ZtBZCGOXxHQGsXuqWvpU6OVhogOrFsNRzqQs3ANRV/Ls6HmS5agQBAKDZ+mVxM3W/00wCYEH6ZbGb5tVragrZiJ/H9fT5BIDstS4AHN4Pum2HEJ6xSAHwvhTeWDM3QqVmYSknhgGoqyIdZNnW9RcAANqlXxaH/bKIzSQuhRAODD/A2aR5dTM16TlSTliZ2zedxc9j/FwaBgDqopUB4JnpeHiYOl5apABI5roBX7LQAAsVw1KXhKUAqLF4U8Tl6XjoIAsAALRcvyyu98tiwx4bwGL0y+Jq6gZ8RUlh6a6krr9uOgOgdlodAJ6ZjofXp+OhRQqAOXFutNAAC3MlhaWuKykANRXfCdem4+GeAQQAAGYEgQEWp18WN/tlsZNuMr6mtFC5+O7yTPzcxc+fcgNQRwLAc+4KAnuhBlovdQOOCw3PWbyFU7m9cJA+RwBQR/uzZ5kO9gAAwIMIAgMsTr8sDvtlsem2TqhM/Fxdiu8u8fOmzADU2QeM3r1Sd77r3cFoLYQQAzsv5PY9AixTuuJ5ozsYbYUQdkMI5wwAPFRcONiejoeuCgKgruKG/dZ0PLQADgAAPLYYBI5ryZNOL4aBt0MIz6sewOmkOXVt0unZn4PFOI7vJ/2ycMsZAI2hA/BDxI3O6Xi4la7YuJJeBgBaK135vJbmROD+4udjXfgXgJqKwd9L8XYc4V8AAOC0UkfgzbTHtm+PDeD0UlhxTWYBTu04fX7WhH8BaBodgB9D2vSMnYB3UvfLeGK5l/03DlCBdPVznA/3dEmHO1xLXX+FpQCoo7ghv5duxAEAAFiIdK321qTTOx9C2ExryhdUF+Bk+mVxe39u0untprzCS0oIj2UUPzvpMwQAjSMAfEKp++VedzBaTy/Wm67agMrdUOL8pJDj1lwQ+GLba0JrxU6JOwJTANTUfnqOOcACAABUJoVubu+xTTq9jbi2rLkEwMnNBYE16oGH20/BX+ueADSaAPApTcfDG2lxIqSuwDEI/HwdfxbIXeo4S6ZS6HGjOxjFRdtdHdJpkaPU8feqQQegZo7Sxvuud21ojSNDDQDkol8WcU35+qTTmzXacfMmVONYXZtrrsP6jiAw3EHwF+DxmCcbQgB4Aea6Aq+lhYotCxWwMBYnaiIFgdfToQjXuNFkR6lT4p5R5pSO3SABrEjsWr/nGcYKCZyvjsVcoGluuI1qZQ5a+nNTgbu6Aq/N3bxpbRkWww2bLSAIDO8R/IV6sm+6OubLhhAAXqB0ZWrsfrkrDAwLY3GiZuYORQgC0zSCvyyKjWpgmY7nuv1azGHVbrg9aWX8bQ00jfea1XGgh0qksE4MAG9POr31tL8mDAxn43nZInNB4O3ZfCpQRQu8t/Yp+Au1Zd90dawZN4QAcEWEgWFhritlPd0VBHaFG3Um+MuiXfeHLLAE11K336uKTUbiM/AlA7ISFnOBprFmuDpqT+X6ZXHjPmHgDWvMcGLm7BZK3dV3Jp3ebppLtxymoIGOZ3mc9DsP1Jd909WxZtwQnbIs216DpUph4I0UCN5w6g4e6bnpeOih0wDdwWgjdQT28kZdCP5Sie5gFDeuvqy6QAVi6DcGfq9Ox0ML32Rp0undtBayEs/ohAM0jWfKynimsDKTTm9tbn/NzRLwaE8JxhHenT8166Epbu/d9cvC3h00RDrwZ990+Y76ZbHWth+6qQSAVywF4maBYC/ccKdiOh6uq0mzpOBbXGR4oe21IFsHKfirOwKV6Q5Gh7ouAAsi9EutTDq9PX8LLN1Bvyw2WvYzAy2QutoNjfVSFf2ysF5LNiad3iwMrDsw3Gu/XxZb6sK8Sae3kToC+7ucurmWuv3au4MGmnR69k2X70q/LHba9kM3lQBwRrqD0fm5hQqLFRDCZZ03myt1RJ+dONathRzsx8UDXcdZhu5gFOe+lxUbOIXjFPi9LvRLHenosBKXbJABTZQ6gX7d4C7VZd3WyNWk0zs/1x143R4b+DuAB0tz5nbapxO4Ilex229899xzAwU026TTs2+6XHGfac1NEc0hAJyxuUDwevrXtfm0ycF0PNShqCW6g9FWWmQwz7Fss8WDXQEqlim9592wuAo8pmIu8GvzjtrTBXipdP8FGs0zZal0/6VWUrhtY26fzdozbaL7L48tdVOPvy/PqxqZuH3jmYNn0B7p3d2+6fLo/tswAsA1k67OX3eCmYaLp002dOFsnzTHbadODboCU6W4eLA3HQ+vqjKr0h2M4lz3WQMA3Mcs8Hv7yyEVmiYt6B5651+K5/pl4W9roLE8U5bKM4XaS1ffr8992WOjiXR041TSe9Xs5k4BLJZNt19oufSu/rm212EJ4ny77l2xWQSAG6A7GMVJcO2uRQsLntTZZ4Ty0BWYCry3eDAdDy0ekIXuYLQbQhgaDWi9gxT2vSHwS1tY0F0K17QDrTDp9OJ6+JeNdqU8U2isuVDwmk7BNMDtBjsObHBW6f1qtk8nd0BV4px1NYV+3XoGxOePfdNqeVdsKAHghkrXSq/ftWghGEwdXJ6OhxaTeU93MFpLHYG3dGTgFN5bPHBlOrnqDkaurIV2OUhB39tfbr2gzSadXnzHf8UvQSUEtYBW8Uyp1KhfFtsN/vngHpNOby3trc0a8KzZY6MGBDqoxKTT20z7dG7vZFGupdCvhmDAPSadnn3TanhXbDAB4BZKHYNnAeHzcyFhV3mwSrEz56YABA/THYxmJ443zVk8Qlw8uOpAAXXRHYziZurLBgwapUjXUc/CvofedeFeqePaVZuICxMXcreFf4E2Sp3qrlozWhjPFLiP9P46v7e2Zo+NDMQ1iC2BDqomDMwZXEvv6lddOw88yqTTs2+6WLfzWN4Vm0sAmDvMdQ4O6WRzmAsKn9d9kwrEheTYxn/XVcechDAw9/He4oH5hDpK89quqyahVg7SN3t97t8Y9D00jPD4Jp3e+fQM1NnhbK6loJY5CGit9EzZcWXomR2kIJlnCpzAXOfg++212WOjCnGPbadfFruqy7LNhYE37NNxH7MbOuPXdaFf4KTSIV/7pmfzXh7LPNxsAsCcSrqSfy39784vZIS5xYwZ1yJxP/E08l66lt+DhjNJc9JmCgRbRG2POxYPzCU0RbqtYUsXBVipg7n/8lm49zB9hel4eN3wwOKlwMS2Q34ncpTeh3eFtADel54pW+nLM+XxHKV3311dgaBac0HhMNdBeObuPTaBB+5HJ02ykkJas0Cwfbr2Opqbm6yfAguRbuCwb3oy7+WxvCu2gwAwK5GCLQ8y6zhM89ycXYEsqEdVUifz2YljL4HNU6TNqKvCV7RB6gq8dtdhK+Bs7vf88H4KmZkLRTxs/aDNbv9tLfQL8GieKY8UnymHQr9QHykE8SDmuuY6TPO1dXGylm5kmO3T6Q7cbMezPbvU5dcaBVCpdODEvumDXU9rxva7WkYAGIBGS+G5WRhYt4T6mXX5vZ66/Fo8AAAAAAAAqIEU1tqY+9K4p94OZqFfB8gAIA8CwAC0SupAPvtat9CQndlp4Vng1+IBAAAAAABAA8wFgtd1CM7ebM/uRurwqwM5AGRIABiAVpvrELyevnptr8mSFbOFAx1+AQAAAAAA2mPS6a3N7dFp3rNaxVzg94YOvwBQDwLAADCnOxidn1tkWBMKXqhZ2Pf213Q8dFIYAAAAAACA9wgFL8VB2q87TGFfe3YAUFMCwADwGLqD0SwQvJYWG84LBj/QUVowuJ7+PRT2BQAAAAAA4DQmnd75uVDw2ty/FxT0oQ5me3Wzfbt+WbiNEwAaRAAYAM6gOxitpzDwRvr/pS3h4FnIN54Ovjn7V9AXAAAAAACAZZl0erO9ufW7/m1DI5/ju/bqDue6+t7M4PsDAComAAwAFUqdg8PcokOYCwtHFzOr/yzYG+YWCUI6FRzdmI6HFgwAAAAAAADIXgoIhxrt1YWH7NfNwr46+QIAtwkAA0AmuoPR7HTyvPv9Z2dxT4deXXsBAAAAAABou0mn96B9uY0FlmbWrfeO/6xfFnf/ZwAADxdC+P8BOGLW2Xa5t+oAAAAASUVORK5CYII=;" vertex="1" parent="1">
          <mxGeometry x="509" y="700" width="174" height="44" as="geometry"/>
        </mxCell>
        <mxCell id="7a5-o8HqeozauI7hd3fz-13" value="" style="endArrow=classic;html=1;exitX=0.5;exitY=1;exitDx=0;exitDy=0;entryX=0.5;entryY=0;entryDx=0;entryDy=0;" edge="1" parent="1" source="7a5-o8HqeozauI7hd3fz-9" target="1ea317790d2ca983-1">
          <mxGeometry width="50" height="50" relative="1" as="geometry">
            <mxPoint x="425" y="225" as="sourcePoint"/>
            <mxPoint x="475" y="175" as="targetPoint"/>
          </mxGeometry>
        </mxCell>
        <mxCell id="7a5-o8HqeozauI7hd3fz-14" value="Admin / Filliale Total / Compte de regroupement&lt;br&gt;&amp;nbsp;/ Distributeur / Utilisateur final&amp;nbsp;" style="text;html=1;resizable=0;points=[];align=center;verticalAlign=middle;labelBackgroundColor=none;" vertex="1" connectable="0" parent="1">
          <mxGeometry x="351.5" y="220" as="geometry">
            <mxPoint as="offset"/>
          </mxGeometry>
        </mxCell>
        <mxCell id="7a5-o8HqeozauI7hd3fz-15" value="Capteur" style="text;html=1;resizable=0;points=[];align=center;verticalAlign=middle;labelBackgroundColor=none;" vertex="1" connectable="0" parent="1">
          <mxGeometry x="741.5" y="65" as="geometry">
            <mxPoint as="offset"/>
          </mxGeometry>
        </mxCell>
      </root>
    </mxGraphModel>
  </diagram>
</mxfile>
